<?xml version="1.0" encoding="UTF-8" standalone="no"?><svg xmlns="http://www.w3.org/2000/svg" xmlns:xlink="http://www.w3.org/1999/xlink" clip-rule="evenodd" stroke-miterlimit="10" viewBox="0 0 1024 768"><desc>SVG generated by Keynote</desc><defs></defs><g transform="matrix(1.00, 0.00, -0.00, -1.00, 0.0, 768.0)"><g><clipPath id="clip0x6080010a79e0"><path d="M 0.0 768.0 L 1024.0 768.0 L 1024.0 0.0 L 0.0 0.0 Z M 0.0 768.0 "></path></clipPath><g clip-path="url(#clip0x6080010a79e0)"><image xlink:href="../../D2C527DA-45E4-452D-A204-C7373C32E7B1/assets/5A8C990C4A4597A5304AC9F14CDA7C87.jpeg" width="2048.00" height="1536.00" transform="matrix(0.50, 0.00, -0.00, -0.50, 0.0, 768.0)"></image></g></g><g opacity="0.30"><g><clipPath id="clip0x608000ebb180"><path d="M 39.0 595.0 L 986.0 595.0 L 986.0 599.0 L 39.0 599.0 Z M 39.0 595.0 "></path></clipPath><g clip-path="url(#clip0x608000ebb180)"><path d="M 0.0 0.5 L 944.7 0.5 L 944.7 0.5 L 0.0 0.5 Z M 0.0 0.0 " fill="none" stroke="#434343" stroke-width="1.00" transform="matrix(1.00, 0.00, 0.00, -1.00, 40.0, 597.0)"></path></g></g></g><g opacity="0.30"><g><clipPath id="clip0x608000ebb3c0"><path d="M 39.0 716.0 L 986.0 716.0 L 986.0 720.0 L 39.0 720.0 Z M 39.0 716.0 "></path></clipPath><g clip-path="url(#clip0x608000ebb3c0)"><path d="M 0.0 0.5 L 944.7 0.5 L 944.7 0.5 L 0.0 0.5 Z M 0.0 0.0 " fill="none" stroke="#434343" stroke-width="1.00" transform="matrix(1.00, 0.00, 0.00, -1.00, 40.0, 718.0)"></path></g></g></g><image xlink:href="../../3ADF0C03-9DF3-4BBF-983D-293FED83AB69/assets/12268F36E9C8F953C5A9C5F8AC9BC7B1.jpeg" width="1920.00" height="1080.00" transform="matrix(-0.28, 0.04, -0.04, -0.28, 1006.4, 488.9)"></image><image xlink:href="../../3ADF0C03-9DF3-4BBF-983D-293FED83AB69/assets/8189BD44FBCD646FAD34A5E6C7D4B27D.png" width="558.00" height="329.00" transform="matrix(-0.99, 0.16, 0.16, 0.99, 965.9, 169.6)"></image><text xml:space="preserve" font-family="BodoniSvtyTwoITCTT-Book,Bodoni SvtyTwo ITC TT" font-size="70.0" fill="#D93D2A" transform="matrix(1.00, 0.00, -0.00, -1.00, 267.3, 632.6)">A</text><text xml:space="preserve" font-family="BodoniSvtyTwoITCTT-Book,Bodoni SvtyTwo ITC TT" font-size="70.0" fill="#D93D2A" transform="matrix(1.00, 0.00, -0.00, -1.00, 309.4, 632.6)">c</text><text xml:space="preserve" font-family="BodoniSvtyTwoITCTT-Book,Bodoni SvtyTwo ITC TT" font-size="70.0" fill="#D93D2A" transform="matrix(1.00, 0.00, -0.00, -1.00, 338.1, 632.6)">k</text><text xml:space="preserve" font-family="BodoniSvtyTwoITCTT-Book,Bodoni SvtyTwo ITC TT" font-size="70.0" fill="#D93D2A" transform="matrix(1.00, 0.00, -0.00, -1.00, 370.9, 632.6)">n</text><text xml:space="preserve" font-family="BodoniSvtyTwoITCTT-Book,Bodoni SvtyTwo ITC TT" font-size="70.0" fill="#D93D2A" transform="matrix(1.00, 0.00, -0.00, -1.00, 405.1, 632.6)">o</text><text xml:space="preserve" font-family="BodoniSvtyTwoITCTT-Book,Bodoni SvtyTwo ITC TT" font-size="70.0" fill="#D93D2A" transform="matrix(1.00, 0.00, -0.00, -1.00, 438.7, 632.6)">w</text><text xml:space="preserve" font-family="BodoniSvtyTwoITCTT-Book,Bodoni SvtyTwo ITC TT" font-size="70.0" fill="#D93D2A" transform="matrix(1.00, 0.00, -0.00, -1.00, 480.6, 632.6)">l</text><text xml:space="preserve" font-family="BodoniSvtyTwoITCTT-Book,Bodoni SvtyTwo ITC TT" font-size="70.0" fill="#D93D2A" transform="matrix(1.00, 0.00, -0.00, -1.00, 497.1, 632.6)">e</text><text xml:space="preserve" font-family="BodoniSvtyTwoITCTT-Book,Bodoni SvtyTwo ITC TT" font-size="70.0" fill="#D93D2A" transform="matrix(1.00, 0.00, -0.00, -1.00, 527.2, 632.6)">d</text><text xml:space="preserve" font-family="BodoniSvtyTwoITCTT-Book,Bodoni SvtyTwo ITC TT" font-size="70.0" fill="#D93D2A" transform="matrix(1.00, 0.00, -0.00, -1.00, 560.5, 632.6)">g</text><text xml:space="preserve" font-family="BodoniSvtyTwoITCTT-Book,Bodoni SvtyTwo ITC TT" font-size="70.0" fill="#D93D2A" transform="matrix(1.00, 0.00, -0.00, -1.00, 593.2, 632.6)">e</text><text xml:space="preserve" font-family="BodoniSvtyTwoITCTT-Book,Bodoni SvtyTwo ITC TT" font-size="70.0" fill="#D93D2A" transform="matrix(1.00, 0.00, -0.00, -1.00, 623.3, 632.6)">m</text><text xml:space="preserve" font-family="BodoniSvtyTwoITCTT-Book,Bodoni SvtyTwo ITC TT" font-size="70.0" fill="#D93D2A" transform="matrix(1.00, 0.00, -0.00, -1.00, 672.5, 632.6)">e</text><text xml:space="preserve" font-family="BodoniSvtyTwoITCTT-Book,Bodoni SvtyTwo ITC TT" font-size="70.0" fill="#D93D2A" transform="matrix(1.00, 0.00, -0.00, -1.00, 702.6, 632.6)">n</text><text xml:space="preserve" font-family="BodoniSvtyTwoITCTT-Book,Bodoni SvtyTwo ITC TT" font-size="70.0" fill="#D93D2A" transform="matrix(1.00, 0.00, -0.00, -1.00, 736.8, 632.6)">t</text><text xml:space="preserve" font-family="Palatino-Roman,Palatino" font-size="31.0" fill="#404040" transform="matrix(1.00, 0.00, -0.00, -1.00, 38.7, 504.6)">W</text><text xml:space="preserve" font-family="Palatino-Roman,Palatino" font-size="31.0" fill="#404040" transform="matrix(1.00, 0.00, -0.00, -1.00, 66.9, 504.6)">e</text><text xml:space="preserve" font-family="Palatino-Roman,Palatino" font-size="31.0" fill="#404040" transform="matrix(1.00, 0.00, -0.00, -1.00, 81.7, 504.6)"> </text><text xml:space="preserve" font-family="Palatino-Roman,Palatino" font-size="31.0" fill="#404040" transform="matrix(1.00, 0.00, -0.00, -1.00, 89.5, 504.6)">a</text><text xml:space="preserve" font-family="Palatino-Roman,Palatino" font-size="31.0" fill="#404040" transform="matrix(1.00, 0.00, -0.00, -1.00, 105.0, 504.6)">r</text><text xml:space="preserve" font-family="Palatino-Roman,Palatino" font-size="31.0" fill="#404040" transform="matrix(1.00, 0.00, -0.00, -1.00, 116.7, 504.6)">e</text><text xml:space="preserve" font-family="Palatino-Roman,Palatino" font-size="31.0" fill="#404040" transform="matrix(1.00, 0.00, -0.00, -1.00, 131.5, 504.6)"> </text><text xml:space="preserve" font-family="Palatino-Roman,Palatino" font-size="31.0" fill="#404040" transform="matrix(1.00, 0.00, -0.00, -1.00, 139.3, 504.6)">t</text><text xml:space="preserve" font-family="Palatino-Roman,Palatino" font-size="31.0" fill="#404040" transform="matrix(1.00, 0.00, -0.00, -1.00, 149.4, 504.6)">h</text><text xml:space="preserve" font-family="Palatino-Roman,Palatino" font-size="31.0" fill="#404040" transform="matrix(1.00, 0.00, -0.00, -1.00, 167.5, 504.6)">a</text><text xml:space="preserve" font-family="Palatino-Roman,Palatino" font-size="31.0" fill="#404040" transform="matrix(1.00, 0.00, -0.00, -1.00, 183.0, 504.6)">n</text><text xml:space="preserve" font-family="Palatino-Roman,Palatino" font-size="31.0" fill="#404040" transform="matrix(1.00, 0.00, -0.00, -1.00, 201.0, 504.6)">k</text><text xml:space="preserve" font-family="Palatino-Roman,Palatino" font-size="31.0" fill="#404040" transform="matrix(1.00, 0.00, -0.00, -1.00, 218.2, 504.6)">f</text><text xml:space="preserve" font-family="Palatino-Roman,Palatino" font-size="31.0" fill="#404040" transform="matrix(1.00, 0.00, -0.00, -1.00, 228.6, 504.6)">u</text><text xml:space="preserve" font-family="Palatino-Roman,Palatino" font-size="31.0" fill="#404040" transform="matrix(1.00, 0.00, -0.00, -1.00, 247.3, 504.6)">l</text><text xml:space="preserve" font-family="Palatino-Roman,Palatino" font-size="31.0" fill="#404040" transform="matrix(1.00, 0.00, -0.00, -1.00, 256.3, 504.6)"> </text><text xml:space="preserve" font-family="Palatino-Roman,Palatino" font-size="31.0" fill="#404040" transform="matrix(1.00, 0.00, -0.00, -1.00, 264.0, 504.6)">t</text><text xml:space="preserve" font-family="Palatino-Roman,Palatino" font-size="31.0" fill="#404040" transform="matrix(1.00, 0.00, -0.00, -1.00, 274.2, 504.6)">o</text><text xml:space="preserve" font-family="Palatino-Roman,Palatino" font-size="31.0" fill="#404040" transform="matrix(1.00, 0.00, -0.00, -1.00, 291.1, 504.6)"> </text><text xml:space="preserve" font-family="Palatino-Roman,Palatino" font-size="23.2" fill="#404040" transform="matrix(1.00, 0.00, -0.00, -1.00, 38.7, 424.4)">•</text><text xml:space="preserve" font-family="Palatino-Roman,Palatino" font-size="31.0" fill="#404040" transform="matrix(1.00, 0.00, -0.00, -1.00, 63.4, 420.6)">P</text><text xml:space="preserve" font-family="Palatino-Roman,Palatino" font-size="31.0" fill="#404040" transform="matrix(1.00, 0.00, -0.00, -1.00, 82.1, 420.6)">r</text><text xml:space="preserve" font-family="Palatino-Roman,Palatino" font-size="31.0" fill="#404040" transform="matrix(1.00, 0.00, -0.00, -1.00, 93.8, 420.6)">o</text><text xml:space="preserve" font-family="Palatino-Roman,Palatino" font-size="31.0" fill="#404040" transform="matrix(1.00, 0.00, -0.00, -1.00, 110.8, 420.6)">f</text><text xml:space="preserve" font-family="Palatino-Roman,Palatino" font-size="31.0" fill="#404040" transform="matrix(1.00, 0.00, -0.00, -1.00, 121.1, 420.6)">e</text><text xml:space="preserve" font-family="Palatino-Roman,Palatino" font-size="31.0" fill="#404040" transform="matrix(1.00, 0.00, -0.00, -1.00, 135.9, 420.6)">s</text><text xml:space="preserve" font-family="Palatino-Roman,Palatino" font-size="31.0" fill="#404040" transform="matrix(1.00, 0.00, -0.00, -1.00, 149.1, 420.6)">s</text><text xml:space="preserve" font-family="Palatino-Roman,Palatino" font-size="31.0" fill="#404040" transform="matrix(1.00, 0.00, -0.00, -1.00, 162.2, 420.6)">o</text><text xml:space="preserve" font-family="Palatino-Roman,Palatino" font-size="31.0" fill="#404040" transform="matrix(1.00, 0.00, -0.00, -1.00, 179.1, 420.6)">r</text><text xml:space="preserve" font-family="Palatino-Roman,Palatino" font-size="31.0" fill="#404040" transform="matrix(1.00, 0.00, -0.00, -1.00, 191.4, 420.6)"> </text><text xml:space="preserve" font-family="Palatino-Roman,Palatino" font-size="31.0" fill="#404040" transform="matrix(1.00, 0.00, -0.00, -1.00, 198.0, 420.6)">A</text><text xml:space="preserve" font-family="Palatino-Roman,Palatino" font-size="31.0" fill="#404040" transform="matrix(1.00, 0.00, -0.00, -1.00, 222.1, 420.6)">s</text><text xml:space="preserve" font-family="Palatino-Roman,Palatino" font-size="31.0" fill="#404040" transform="matrix(1.00, 0.00, -0.00, -1.00, 235.2, 420.6)">h</text><text xml:space="preserve" font-family="Palatino-Roman,Palatino" font-size="31.0" fill="#404040" transform="matrix(1.00, 0.00, -0.00, -1.00, 253.3, 420.6)">o</text><text xml:space="preserve" font-family="Palatino-Roman,Palatino" font-size="31.0" fill="#404040" transform="matrix(1.00, 0.00, -0.00, -1.00, 270.2, 420.6)">k</text><text xml:space="preserve" font-family="Palatino-Roman,Palatino" font-size="31.0" fill="#404040" transform="matrix(1.00, 0.00, -0.00, -1.00, 287.4, 420.6)"> </text><text xml:space="preserve" font-family="Palatino-Roman,Palatino" font-size="31.0" fill="#404040" transform="matrix(1.00, 0.00, -0.00, -1.00, 295.2, 420.6)">B</text><text xml:space="preserve" font-family="Palatino-Roman,Palatino" font-size="31.0" fill="#404040" transform="matrix(1.00, 0.00, -0.00, -1.00, 314.1, 420.6)">a</text><text xml:space="preserve" font-family="Palatino-Roman,Palatino" font-size="31.0" fill="#404040" transform="matrix(1.00, 0.00, -0.00, -1.00, 329.6, 420.6)">n</text><text xml:space="preserve" font-family="Palatino-Roman,Palatino" font-size="31.0" fill="#404040" transform="matrix(1.00, 0.00, -0.00, -1.00, 347.6, 420.6)">e</text><text xml:space="preserve" font-family="Palatino-Roman,Palatino" font-size="31.0" fill="#404040" transform="matrix(1.00, 0.00, -0.00, -1.00, 362.5, 420.6)">r</text><text xml:space="preserve" font-family="Palatino-Roman,Palatino" font-size="31.0" fill="#404040" transform="matrix(1.00, 0.00, -0.00, -1.00, 374.7, 420.6)">j</text><text xml:space="preserve" font-family="Palatino-Roman,Palatino" font-size="31.0" fill="#404040" transform="matrix(1.00, 0.00, -0.00, -1.00, 382.0, 420.6)">e</text><text xml:space="preserve" font-family="Palatino-Roman,Palatino" font-size="31.0" fill="#404040" transform="matrix(1.00, 0.00, -0.00, -1.00, 396.8, 420.6)">e</text><text xml:space="preserve" font-family="Palatino-Roman,Palatino" font-size="23.2" fill="#404040" transform="matrix(1.00, 0.00, -0.00, -1.00, 38.7, 382.4)">•</text><text xml:space="preserve" font-family="Palatino-Roman,Palatino" font-size="31.0" fill="#404040" transform="matrix(1.00, 0.00, -0.00, -1.00, 63.4, 378.6)">P</text><text xml:space="preserve" font-family="Palatino-Roman,Palatino" font-size="31.0" fill="#404040" transform="matrix(1.00, 0.00, -0.00, -1.00, 82.1, 378.6)">r</text><text xml:space="preserve" font-family="Palatino-Roman,Palatino" font-size="31.0" fill="#404040" transform="matrix(1.00, 0.00, -0.00, -1.00, 93.8, 378.6)">o</text><text xml:space="preserve" font-family="Palatino-Roman,Palatino" font-size="31.0" fill="#404040" transform="matrix(1.00, 0.00, -0.00, -1.00, 110.8, 378.6)">f</text><text xml:space="preserve" font-family="Palatino-Roman,Palatino" font-size="31.0" fill="#404040" transform="matrix(1.00, 0.00, -0.00, -1.00, 121.1, 378.6)">e</text><text xml:space="preserve" font-family="Palatino-Roman,Palatino" font-size="31.0" fill="#404040" transform="matrix(1.00, 0.00, -0.00, -1.00, 135.9, 378.6)">s</text><text xml:space="preserve" font-family="Palatino-Roman,Palatino" font-size="31.0" fill="#404040" transform="matrix(1.00, 0.00, -0.00, -1.00, 149.1, 378.6)">s</text><text xml:space="preserve" font-family="Palatino-Roman,Palatino" font-size="31.0" fill="#404040" transform="matrix(1.00, 0.00, -0.00, -1.00, 162.2, 378.6)">o</text><text xml:space="preserve" font-family="Palatino-Roman,Palatino" font-size="31.0" fill="#404040" transform="matrix(1.00, 0.00, -0.00, -1.00, 179.1, 378.6)">r</text><text xml:space="preserve" font-family="Palatino-Roman,Palatino" font-size="31.0" fill="#404040" transform="matrix(1.00, 0.00, -0.00, -1.00, 191.4, 378.6)"> </text><text xml:space="preserve" font-family="Palatino-Roman,Palatino" font-size="31.0" fill="#404040" transform="matrix(1.00, 0.00, -0.00, -1.00, 199.1, 378.6)">D</text><text xml:space="preserve" font-family="Palatino-Roman,Palatino" font-size="31.0" fill="#404040" transform="matrix(1.00, 0.00, -0.00, -1.00, 223.1, 378.6)">a</text><text xml:space="preserve" font-family="Palatino-Roman,Palatino" font-size="31.0" fill="#404040" transform="matrix(1.00, 0.00, -0.00, -1.00, 238.6, 378.6)">n</text><text xml:space="preserve" font-family="Palatino-Roman,Palatino" font-size="31.0" fill="#404040" transform="matrix(1.00, 0.00, -0.00, -1.00, 256.6, 378.6)"> </text><text xml:space="preserve" font-family="Palatino-Roman,Palatino" font-size="31.0" fill="#404040" transform="matrix(1.00, 0.00, -0.00, -1.00, 264.4, 378.6)">H</text><text xml:space="preserve" font-family="Palatino-Roman,Palatino" font-size="31.0" fill="#404040" transform="matrix(1.00, 0.00, -0.00, -1.00, 290.2, 378.6)">a</text><text xml:space="preserve" font-family="Palatino-Roman,Palatino" font-size="31.0" fill="#404040" transform="matrix(1.00, 0.00, -0.00, -1.00, 305.7, 378.6)">r</text><text xml:space="preserve" font-family="Palatino-Roman,Palatino" font-size="31.0" fill="#404040" transform="matrix(1.00, 0.00, -0.00, -1.00, 317.9, 378.6)">k</text><text xml:space="preserve" font-family="Palatino-Roman,Palatino" font-size="31.0" fill="#404040" transform="matrix(1.00, 0.00, -0.00, -1.00, 335.2, 378.6)">e</text><text xml:space="preserve" font-family="Palatino-Roman,Palatino" font-size="31.0" fill="#404040" transform="matrix(1.00, 0.00, -0.00, -1.00, 350.0, 378.6)">y</text><text xml:space="preserve" font-family="Palatino-Roman,Palatino" font-size="23.2" fill="#404040" transform="matrix(1.00, 0.00, -0.00, -1.00, 38.7, 340.4)">•</text><text xml:space="preserve" font-family="Palatino-Roman,Palatino" font-size="31.0" fill="#404040" transform="matrix(1.00, 0.00, -0.00, -1.00, 63.4, 336.6)">D</text><text xml:space="preserve" font-family="Palatino-Roman,Palatino" font-size="31.0" fill="#404040" transform="matrix(1.00, 0.00, -0.00, -1.00, 87.4, 336.6)">r</text><text xml:space="preserve" font-family="Palatino-Roman,Palatino" font-size="31.0" fill="#404040" transform="matrix(1.00, 0.00, -0.00, -1.00, 97.4, 336.6)">.</text><text xml:space="preserve" font-family="Palatino-Roman,Palatino" font-size="31.0" fill="#404040" transform="matrix(1.00, 0.00, -0.00, -1.00, 105.1, 336.6)"> </text><text xml:space="preserve" font-family="Palatino-Roman,Palatino" font-size="31.0" fill="#404040" transform="matrix(1.00, 0.00, -0.00, -1.00, 112.9, 336.6)">J</text><text xml:space="preserve" font-family="Palatino-Roman,Palatino" font-size="31.0" fill="#404040" transform="matrix(1.00, 0.00, -0.00, -1.00, 123.2, 336.6)">e</text><text xml:space="preserve" font-family="Palatino-Roman,Palatino" font-size="31.0" fill="#404040" transform="matrix(1.00, 0.00, -0.00, -1.00, 138.0, 336.6)">r</text><text xml:space="preserve" font-family="Palatino-Roman,Palatino" font-size="31.0" fill="#404040" transform="matrix(1.00, 0.00, -0.00, -1.00, 150.3, 336.6)">r</text><text xml:space="preserve" font-family="Palatino-Roman,Palatino" font-size="31.0" fill="#404040" transform="matrix(1.00, 0.00, -0.00, -1.00, 162.5, 336.6)">y</text><text xml:space="preserve" font-family="Palatino-Roman,Palatino" font-size="31.0" fill="#404040" transform="matrix(1.00, 0.00, -0.00, -1.00, 179.8, 336.6)"> </text><text xml:space="preserve" font-family="Palatino-Roman,Palatino" font-size="31.0" fill="#404040" transform="matrix(1.00, 0.00, -0.00, -1.00, 187.5, 336.6)">G</text><text xml:space="preserve" font-family="Palatino-Roman,Palatino" font-size="31.0" fill="#404040" transform="matrix(1.00, 0.00, -0.00, -1.00, 211.2, 336.6)">a</text><text xml:space="preserve" font-family="Palatino-Roman,Palatino" font-size="31.0" fill="#404040" transform="matrix(1.00, 0.00, -0.00, -1.00, 226.7, 336.6)">o</text><text xml:space="preserve" font-family="Palatino-Roman,Palatino" font-size="23.2" fill="#404040" transform="matrix(1.00, 0.00, -0.00, -1.00, 38.7, 298.4)">•</text><text xml:space="preserve" font-family="Palatino-Roman,Palatino" font-size="31.0" fill="#404040" transform="matrix(1.00, 0.00, -0.00, -1.00, 63.4, 294.6)">P</text><text xml:space="preserve" font-family="Palatino-Roman,Palatino" font-size="31.0" fill="#404040" transform="matrix(1.00, 0.00, -0.00, -1.00, 82.1, 294.6)">r</text><text xml:space="preserve" font-family="Palatino-Roman,Palatino" font-size="31.0" fill="#404040" transform="matrix(1.00, 0.00, -0.00, -1.00, 93.8, 294.6)">o</text><text xml:space="preserve" font-family="Palatino-Roman,Palatino" font-size="31.0" fill="#404040" transform="matrix(1.00, 0.00, -0.00, -1.00, 110.8, 294.6)">f</text><text xml:space="preserve" font-family="Palatino-Roman,Palatino" font-size="31.0" fill="#404040" transform="matrix(1.00, 0.00, -0.00, -1.00, 121.1, 294.6)">e</text><text xml:space="preserve" font-family="Palatino-Roman,Palatino" font-size="31.0" fill="#404040" transform="matrix(1.00, 0.00, -0.00, -1.00, 135.9, 294.6)">s</text><text xml:space="preserve" font-family="Palatino-Roman,Palatino" font-size="31.0" fill="#404040" transform="matrix(1.00, 0.00, -0.00, -1.00, 149.1, 294.6)">s</text><text xml:space="preserve" font-family="Palatino-Roman,Palatino" font-size="31.0" fill="#404040" transform="matrix(1.00, 0.00, -0.00, -1.00, 162.2, 294.6)">o</text><text xml:space="preserve" font-family="Palatino-Roman,Palatino" font-size="31.0" fill="#404040" transform="matrix(1.00, 0.00, -0.00, -1.00, 179.1, 294.6)">r</text><text xml:space="preserve" font-family="Palatino-Roman,Palatino" font-size="31.0" fill="#404040" transform="matrix(1.00, 0.00, -0.00, -1.00, 191.4, 294.6)"> </text><text xml:space="preserve" font-family="Palatino-Roman,Palatino" font-size="31.0" fill="#404040" transform="matrix(1.00, 0.00, -0.00, -1.00, 199.1, 294.6)">K</text><text xml:space="preserve" font-family="Palatino-Roman,Palatino" font-size="31.0" fill="#404040" transform="matrix(1.00, 0.00, -0.00, -1.00, 221.6, 294.6)">e</text><text xml:space="preserve" font-family="Palatino-Roman,Palatino" font-size="31.0" fill="#404040" transform="matrix(1.00, 0.00, -0.00, -1.00, 236.5, 294.6)">i</text><text xml:space="preserve" font-family="Palatino-Roman,Palatino" font-size="31.0" fill="#404040" transform="matrix(1.00, 0.00, -0.00, -1.00, 245.5, 294.6)">t</text><text xml:space="preserve" font-family="Palatino-Roman,Palatino" font-size="31.0" fill="#404040" transform="matrix(1.00, 0.00, -0.00, -1.00, 255.6, 294.6)">h</text><text xml:space="preserve" font-family="Palatino-Roman,Palatino" font-size="31.0" fill="#404040" transform="matrix(1.00, 0.00, -0.00, -1.00, 273.6, 294.6)"> </text><text xml:space="preserve" font-family="Palatino-Roman,Palatino" font-size="31.0" fill="#404040" transform="matrix(1.00, 0.00, -0.00, -1.00, 281.4, 294.6)">P</text><text xml:space="preserve" font-family="Palatino-Roman,Palatino" font-size="31.0" fill="#404040" transform="matrix(1.00, 0.00, -0.00, -1.00, 300.1, 294.6)">e</text><text xml:space="preserve" font-family="Palatino-Roman,Palatino" font-size="31.0" fill="#404040" transform="matrix(1.00, 0.00, -0.00, -1.00, 315.0, 294.6)">r</text><text xml:space="preserve" font-family="Palatino-Roman,Palatino" font-size="31.0" fill="#404040" transform="matrix(1.00, 0.00, -0.00, -1.00, 327.2, 294.6)">r</text><text xml:space="preserve" font-family="Palatino-Roman,Palatino" font-size="31.0" fill="#404040" transform="matrix(1.00, 0.00, -0.00, -1.00, 339.5, 294.6)">y</text><text xml:space="preserve" font-family="Palatino-Roman,Palatino" font-size="23.2" fill="#404040" transform="matrix(1.00, 0.00, -0.00, -1.00, 38.7, 256.4)">•</text><text xml:space="preserve" font-family="Palatino-Roman,Palatino" font-size="31.0" fill="#404040" transform="matrix(1.00, 0.00, -0.00, -1.00, 63.4, 252.6)">D</text><text xml:space="preserve" font-family="Palatino-Roman,Palatino" font-size="31.0" fill="#404040" transform="matrix(1.00, 0.00, -0.00, -1.00, 87.4, 252.6)">r</text><text xml:space="preserve" font-family="Palatino-Roman,Palatino" font-size="31.0" fill="#404040" transform="matrix(1.00, 0.00, -0.00, -1.00, 97.4, 252.6)">.</text><text xml:space="preserve" font-family="Palatino-Roman,Palatino" font-size="31.0" fill="#404040" transform="matrix(1.00, 0.00, -0.00, -1.00, 105.1, 252.6)"> </text><text xml:space="preserve" font-family="Palatino-Roman,Palatino" font-size="31.0" fill="#404040" transform="matrix(1.00, 0.00, -0.00, -1.00, 112.9, 252.6)">L</text><text xml:space="preserve" font-family="Palatino-Roman,Palatino" font-size="31.0" fill="#404040" transform="matrix(1.00, 0.00, -0.00, -1.00, 131.8, 252.6)">e</text><text xml:space="preserve" font-family="Palatino-Roman,Palatino" font-size="31.0" fill="#404040" transform="matrix(1.00, 0.00, -0.00, -1.00, 146.6, 252.6)">e</text><text xml:space="preserve" font-family="Palatino-Roman,Palatino" font-size="31.0" fill="#404040" transform="matrix(1.00, 0.00, -0.00, -1.00, 161.5, 252.6)"> </text><text xml:space="preserve" font-family="Palatino-Roman,Palatino" font-size="31.0" fill="#404040" transform="matrix(1.00, 0.00, -0.00, -1.00, 169.2, 252.6)">C</text><text xml:space="preserve" font-family="Palatino-Roman,Palatino" font-size="31.0" fill="#404040" transform="matrix(1.00, 0.00, -0.00, -1.00, 191.2, 252.6)">h</text><text xml:space="preserve" font-family="Palatino-Roman,Palatino" font-size="31.0" fill="#404040" transform="matrix(1.00, 0.00, -0.00, -1.00, 209.3, 252.6)">a</text><text xml:space="preserve" font-family="Palatino-Roman,Palatino" font-size="31.0" fill="#404040" transform="matrix(1.00, 0.00, -0.00, -1.00, 224.8, 252.6)">n</text><text xml:space="preserve" font-family="Palatino-Roman,Palatino" font-size="31.0" fill="#404040" transform="matrix(1.00, 0.00, -0.00, -1.00, 242.8, 252.6)">g</text><text xml:space="preserve" font-family="Palatino-Roman,Palatino" font-size="23.2" fill="#404040" transform="matrix(1.00, 0.00, -0.00, -1.00, 38.7, 214.4)">•</text><text xml:space="preserve" font-family="Palatino-Roman,Palatino" font-size="31.0" fill="#404040" transform="matrix(1.00, 0.00, -0.00, -1.00, 63.4, 210.6)">D</text><text xml:space="preserve" font-family="Palatino-Roman,Palatino" font-size="31.0" fill="#404040" transform="matrix(1.00, 0.00, -0.00, -1.00, 87.4, 210.6)">r</text><text xml:space="preserve" font-family="Palatino-Roman,Palatino" font-size="31.0" fill="#404040" transform="matrix(1.00, 0.00, -0.00, -1.00, 97.4, 210.6)">.</text><text xml:space="preserve" font-family="Palatino-Roman,Palatino" font-size="31.0" fill="#404040" transform="matrix(1.00, 0.00, -0.00, -1.00, 105.1, 210.6)"> </text><text xml:space="preserve" font-family="Palatino-Roman,Palatino" font-size="31.0" fill="#404040" transform="matrix(1.00, 0.00, -0.00, -1.00, 112.9, 210.6)">X</text><text xml:space="preserve" font-family="Palatino-Roman,Palatino" font-size="31.0" fill="#404040" transform="matrix(1.00, 0.00, -0.00, -1.00, 133.5, 210.6)">i</text><text xml:space="preserve" font-family="Palatino-Roman,Palatino" font-size="31.0" fill="#404040" transform="matrix(1.00, 0.00, -0.00, -1.00, 142.6, 210.6)">a</text><text xml:space="preserve" font-family="Palatino-Roman,Palatino" font-size="31.0" fill="#404040" transform="matrix(1.00, 0.00, -0.00, -1.00, 158.1, 210.6)">o</text><text xml:space="preserve" font-family="Palatino-Roman,Palatino" font-size="31.0" fill="#404040" transform="matrix(1.00, 0.00, -0.00, -1.00, 175.0, 210.6)"> </text><text xml:space="preserve" font-family="Palatino-Roman,Palatino" font-size="31.0" fill="#404040" transform="matrix(1.00, 0.00, -0.00, -1.00, 182.7, 210.6)">S</text><text xml:space="preserve" font-family="Palatino-Roman,Palatino" font-size="31.0" fill="#404040" transform="matrix(1.00, 0.00, -0.00, -1.00, 199.0, 210.6)">u</text><text xml:space="preserve" font-family="Palatino-Roman,Palatino" font-size="31.0" fill="#404040" transform="matrix(1.00, 0.00, -0.00, -1.00, 38.7, 126.6)">f</text><text xml:space="preserve" font-family="Palatino-Roman,Palatino" font-size="31.0" fill="#404040" transform="matrix(1.00, 0.00, -0.00, -1.00, 49.1, 126.6)">o</text><text xml:space="preserve" font-family="Palatino-Roman,Palatino" font-size="31.0" fill="#404040" transform="matrix(1.00, 0.00, -0.00, -1.00, 66.0, 126.6)">r</text><text xml:space="preserve" font-family="Palatino-Roman,Palatino" font-size="31.0" fill="#404040" transform="matrix(1.00, 0.00, -0.00, -1.00, 78.2, 126.6)"> </text><text xml:space="preserve" font-family="Palatino-Roman,Palatino" font-size="31.0" fill="#404040" transform="matrix(1.00, 0.00, -0.00, -1.00, 86.0, 126.6)">t</text><text xml:space="preserve" font-family="Palatino-Roman,Palatino" font-size="31.0" fill="#404040" transform="matrix(1.00, 0.00, -0.00, -1.00, 96.1, 126.6)">h</text><text xml:space="preserve" font-family="Palatino-Roman,Palatino" font-size="31.0" fill="#404040" transform="matrix(1.00, 0.00, -0.00, -1.00, 114.1, 126.6)">e</text><text xml:space="preserve" font-family="Palatino-Roman,Palatino" font-size="31.0" fill="#404040" transform="matrix(1.00, 0.00, -0.00, -1.00, 129.0, 126.6)">i</text><text xml:space="preserve" font-family="Palatino-Roman,Palatino" font-size="31.0" fill="#404040" transform="matrix(1.00, 0.00, -0.00, -1.00, 138.0, 126.6)">r</text><text xml:space="preserve" font-family="Palatino-Roman,Palatino" font-size="31.0" fill="#404040" transform="matrix(1.00, 0.00, -0.00, -1.00, 150.3, 126.6)"> </text><text xml:space="preserve" font-family="Palatino-Roman,Palatino" font-size="31.0" fill="#404040" transform="matrix(1.00, 0.00, -0.00, -1.00, 158.0, 126.6)">a</text><text xml:space="preserve" font-family="Palatino-Roman,Palatino" font-size="31.0" fill="#404040" transform="matrix(1.00, 0.00, -0.00, -1.00, 173.5, 126.6)">s</text><text xml:space="preserve" font-family="Palatino-Roman,Palatino" font-size="31.0" fill="#404040" transform="matrix(1.00, 0.00, -0.00, -1.00, 186.6, 126.6)">s</text><text xml:space="preserve" font-family="Palatino-Roman,Palatino" font-size="31.0" fill="#404040" transform="matrix(1.00, 0.00, -0.00, -1.00, 199.8, 126.6)">i</text><text xml:space="preserve" font-family="Palatino-Roman,Palatino" font-size="31.0" fill="#404040" transform="matrix(1.00, 0.00, -0.00, -1.00, 208.8, 126.6)">s</text><text xml:space="preserve" font-family="Palatino-Roman,Palatino" font-size="31.0" fill="#404040" transform="matrix(1.00, 0.00, -0.00, -1.00, 221.9, 126.6)">t</text><text xml:space="preserve" font-family="Palatino-Roman,Palatino" font-size="31.0" fill="#404040" transform="matrix(1.00, 0.00, -0.00, -1.00, 232.0, 126.6)">a</text><text xml:space="preserve" font-family="Palatino-Roman,Palatino" font-size="31.0" fill="#404040" transform="matrix(1.00, 0.00, -0.00, -1.00, 247.5, 126.6)">n</text><text xml:space="preserve" font-family="Palatino-Roman,Palatino" font-size="31.0" fill="#404040" transform="matrix(1.00, 0.00, -0.00, -1.00, 265.6, 126.6)">t</text><text xml:space="preserve" font-family="Palatino-Roman,Palatino" font-size="31.0" fill="#404040" transform="matrix(1.00, 0.00, -0.00, -1.00, 275.7, 126.6)"> </text><text xml:space="preserve" font-family="Palatino-Roman,Palatino" font-size="31.0" fill="#404040" transform="matrix(1.00, 0.00, -0.00, -1.00, 283.5, 126.6)">a</text><text xml:space="preserve" font-family="Palatino-Roman,Palatino" font-size="31.0" fill="#404040" transform="matrix(1.00, 0.00, -0.00, -1.00, 299.0, 126.6)">n</text><text xml:space="preserve" font-family="Palatino-Roman,Palatino" font-size="31.0" fill="#404040" transform="matrix(1.00, 0.00, -0.00, -1.00, 317.0, 126.6)">d</text><text xml:space="preserve" font-family="Palatino-Roman,Palatino" font-size="31.0" fill="#404040" transform="matrix(1.00, 0.00, -0.00, -1.00, 335.9, 126.6)"> </text><text xml:space="preserve" font-family="Palatino-Roman,Palatino" font-size="31.0" fill="#404040" transform="matrix(1.00, 0.00, -0.00, -1.00, 343.7, 126.6)">g</text><text xml:space="preserve" font-family="Palatino-Roman,Palatino" font-size="31.0" fill="#404040" transform="matrix(1.00, 0.00, -0.00, -1.00, 360.9, 126.6)">u</text><text xml:space="preserve" font-family="Palatino-Roman,Palatino" font-size="31.0" fill="#404040" transform="matrix(1.00, 0.00, -0.00, -1.00, 379.6, 126.6)">i</text><text xml:space="preserve" font-family="Palatino-Roman,Palatino" font-size="31.0" fill="#404040" transform="matrix(1.00, 0.00, -0.00, -1.00, 388.6, 126.6)">d</text><text xml:space="preserve" font-family="Palatino-Roman,Palatino" font-size="31.0" fill="#404040" transform="matrix(1.00, 0.00, -0.00, -1.00, 407.6, 126.6)">a</text><text xml:space="preserve" font-family="Palatino-Roman,Palatino" font-size="31.0" fill="#404040" transform="matrix(1.00, 0.00, -0.00, -1.00, 423.1, 126.6)">n</text><text xml:space="preserve" font-family="Palatino-Roman,Palatino" font-size="31.0" fill="#404040" transform="matrix(1.00, 0.00, -0.00, -1.00, 441.1, 126.6)">c</text><text xml:space="preserve" font-family="Palatino-Roman,Palatino" font-size="31.0" fill="#404040" transform="matrix(1.00, 0.00, -0.00, -1.00, 454.9, 126.6)">e</text><text xml:space="preserve" font-family="Palatino-Roman,Palatino" font-size="31.0" fill="#404040" transform="matrix(1.00, 0.00, -0.00, -1.00, 469.7, 126.6)"> </text><text xml:space="preserve" font-family="Palatino-Roman,Palatino" font-size="31.0" fill="#404040" transform="matrix(1.00, 0.00, -0.00, -1.00, 477.5, 126.6)">i</text><text xml:space="preserve" font-family="Palatino-Roman,Palatino" font-size="31.0" fill="#404040" transform="matrix(1.00, 0.00, -0.00, -1.00, 486.5, 126.6)">n</text><text xml:space="preserve" font-family="Palatino-Roman,Palatino" font-size="31.0" fill="#404040" transform="matrix(1.00, 0.00, -0.00, -1.00, 504.5, 126.6)"> </text><text xml:space="preserve" font-family="Palatino-Roman,Palatino" font-size="31.0" fill="#404040" transform="matrix(1.00, 0.00, -0.00, -1.00, 512.3, 126.6)">h</text><text xml:space="preserve" font-family="Palatino-Roman,Palatino" font-size="31.0" fill="#404040" transform="matrix(1.00, 0.00, -0.00, -1.00, 530.3, 126.6)">e</text><text xml:space="preserve" font-family="Palatino-Roman,Palatino" font-size="31.0" fill="#404040" transform="matrix(1.00, 0.00, -0.00, -1.00, 545.2, 126.6)">l</text><text xml:space="preserve" font-family="Palatino-Roman,Palatino" font-size="31.0" fill="#404040" transform="matrix(1.00, 0.00, -0.00, -1.00, 554.2, 126.6)">p</text><text xml:space="preserve" font-family="Palatino-Roman,Palatino" font-size="31.0" fill="#404040" transform="matrix(1.00, 0.00, -0.00, -1.00, 572.8, 126.6)">i</text><text xml:space="preserve" font-family="Palatino-Roman,Palatino" font-size="31.0" fill="#404040" transform="matrix(1.00, 0.00, -0.00, -1.00, 581.9, 126.6)">n</text><text xml:space="preserve" font-family="Palatino-Roman,Palatino" font-size="31.0" fill="#404040" transform="matrix(1.00, 0.00, -0.00, -1.00, 599.9, 126.6)">g</text><text xml:space="preserve" font-family="Palatino-Roman,Palatino" font-size="31.0" fill="#404040" transform="matrix(1.00, 0.00, -0.00, -1.00, 617.1, 126.6)"> </text><text xml:space="preserve" font-family="Palatino-Roman,Palatino" font-size="31.0" fill="#404040" transform="matrix(1.00, 0.00, -0.00, -1.00, 624.9, 126.6)">u</text><text xml:space="preserve" font-family="Palatino-Roman,Palatino" font-size="31.0" fill="#404040" transform="matrix(1.00, 0.00, -0.00, -1.00, 643.6, 126.6)">s</text><text xml:space="preserve" font-family="Palatino-Roman,Palatino" font-size="31.0" fill="#404040" transform="matrix(1.00, 0.00, -0.00, -1.00, 656.7, 126.6)"> </text><text xml:space="preserve" font-family="Palatino-Roman,Palatino" font-size="31.0" fill="#404040" transform="matrix(1.00, 0.00, -0.00, -1.00, 664.5, 126.6)">m</text><text xml:space="preserve" font-family="Palatino-Roman,Palatino" font-size="31.0" fill="#404040" transform="matrix(1.00, 0.00, -0.00, -1.00, 691.8, 126.6)">a</text><text xml:space="preserve" font-family="Palatino-Roman,Palatino" font-size="31.0" fill="#404040" transform="matrix(1.00, 0.00, -0.00, -1.00, 707.3, 126.6)">t</text><text xml:space="preserve" font-family="Palatino-Roman,Palatino" font-size="31.0" fill="#404040" transform="matrix(1.00, 0.00, -0.00, -1.00, 717.4, 126.6)">e</text><text xml:space="preserve" font-family="Palatino-Roman,Palatino" font-size="31.0" fill="#404040" transform="matrix(1.00, 0.00, -0.00, -1.00, 732.3, 126.6)">r</text><text xml:space="preserve" font-family="Palatino-Roman,Palatino" font-size="31.0" fill="#404040" transform="matrix(1.00, 0.00, -0.00, -1.00, 744.5, 126.6)">i</text><text xml:space="preserve" font-family="Palatino-Roman,Palatino" font-size="31.0" fill="#404040" transform="matrix(1.00, 0.00, -0.00, -1.00, 753.6, 126.6)">a</text><text xml:space="preserve" font-family="Palatino-Roman,Palatino" font-size="31.0" fill="#404040" transform="matrix(1.00, 0.00, -0.00, -1.00, 769.1, 126.6)">l</text><text xml:space="preserve" font-family="Palatino-Roman,Palatino" font-size="31.0" fill="#404040" transform="matrix(1.00, 0.00, -0.00, -1.00, 778.1, 126.6)">i</text><text xml:space="preserve" font-family="Palatino-Roman,Palatino" font-size="31.0" fill="#404040" transform="matrix(1.00, 0.00, -0.00, -1.00, 787.1, 126.6)">z</text><text xml:space="preserve" font-family="Palatino-Roman,Palatino" font-size="31.0" fill="#404040" transform="matrix(1.00, 0.00, -0.00, -1.00, 802.6, 126.6)">e</text><text xml:space="preserve" font-family="Palatino-Roman,Palatino" font-size="31.0" fill="#404040" transform="matrix(1.00, 0.00, -0.00, -1.00, 817.5, 126.6)"> </text><text xml:space="preserve" font-family="Palatino-Roman,Palatino" font-size="31.0" fill="#404040" transform="matrix(1.00, 0.00, -0.00, -1.00, 825.2, 126.6)">t</text><text xml:space="preserve" font-family="Palatino-Roman,Palatino" font-size="31.0" fill="#404040" transform="matrix(1.00, 0.00, -0.00, -1.00, 835.3, 126.6)">h</text><text xml:space="preserve" font-family="Palatino-Roman,Palatino" font-size="31.0" fill="#404040" transform="matrix(1.00, 0.00, -0.00, -1.00, 853.4, 126.6)">i</text><text xml:space="preserve" font-family="Palatino-Roman,Palatino" font-size="31.0" fill="#404040" transform="matrix(1.00, 0.00, -0.00, -1.00, 862.4, 126.6)">s</text><text xml:space="preserve" font-family="Palatino-Roman,Palatino" font-size="31.0" fill="#404040" transform="matrix(1.00, 0.00, -0.00, -1.00, 875.5, 126.6)"> </text><text xml:space="preserve" font-family="Palatino-Roman,Palatino" font-size="31.0" fill="#404040" transform="matrix(1.00, 0.00, -0.00, -1.00, 883.3, 126.6)">p</text><text xml:space="preserve" font-family="Palatino-Roman,Palatino" font-size="31.0" fill="#404040" transform="matrix(1.00, 0.00, -0.00, -1.00, 901.9, 126.6)">r</text><text xml:space="preserve" font-family="Palatino-Roman,Palatino" font-size="31.0" fill="#404040" transform="matrix(1.00, 0.00, -0.00, -1.00, 913.6, 126.6)">o</text><text xml:space="preserve" font-family="Palatino-Roman,Palatino" font-size="31.0" fill="#404040" transform="matrix(1.00, 0.00, -0.00, -1.00, 930.5, 126.6)">j</text><text xml:space="preserve" font-family="Palatino-Roman,Palatino" font-size="31.0" fill="#404040" transform="matrix(1.00, 0.00, -0.00, -1.00, 937.8, 126.6)">e</text><text xml:space="preserve" font-family="Palatino-Roman,Palatino" font-size="31.0" fill="#404040" transform="matrix(1.00, 0.00, -0.00, -1.00, 952.6, 126.6)">c</text><text xml:space="preserve" font-family="Palatino-Roman,Palatino" font-size="31.0" fill="#404040" transform="matrix(1.00, 0.00, -0.00, -1.00, 966.4, 126.6)">t</text><text xml:space="preserve" font-family="Palatino-Roman,Palatino" font-size="31.0" fill="#404040" transform="matrix(1.00, 0.00, -0.00, -1.00, 976.5, 126.6)">.</text></g></svg>