<?xml version="1.0" encoding="UTF-8" standalone="no"?><svg xmlns="http://www.w3.org/2000/svg" xmlns:xlink="http://www.w3.org/1999/xlink" clip-rule="evenodd" stroke-miterlimit="10" viewBox="0 0 1024 768"><desc>SVG generated by Keynote</desc><defs></defs><g transform="matrix(1.00, 0.00, -0.00, -1.00, 0.0, 768.0)"><g><clipPath id="clip0x6180014a3c00"><path d="M 0.0 768.0 L 1024.0 768.0 L 1024.0 0.0 L 0.0 0.0 Z M 0.0 768.0 "></path></clipPath><g clip-path="url(#clip0x6180014a3c00)"><image xlink:href="../../D2C527DA-45E4-452D-A204-C7373C32E7B1/assets/5A8C990C4A4597A5304AC9F14CDA7C87.jpeg" width="2048.00" height="1536.00" transform="matrix(0.50, 0.00, -0.00, -0.50, 0.0, 768.0)"></image></g></g><g opacity="0.30"><g><clipPath id="clip0x6100010bafa0"><path d="M 39.0 595.0 L 986.0 595.0 L 986.0 599.0 L 39.0 599.0 Z M 39.0 595.0 "></path></clipPath><g clip-path="url(#clip0x6100010bafa0)"><path d="M 0.0 0.5 L 944.7 0.5 L 944.7 0.5 L 0.0 0.5 Z M 0.0 0.0 " fill="none" stroke="#434343" stroke-width="1.00" transform="matrix(1.00, 0.00, 0.00, -1.00, 40.0, 597.0)"></path></g></g></g><g opacity="0.30"><g><clipPath id="clip0x6100012a98a0"><path d="M 39.0 716.0 L 986.0 716.0 L 986.0 720.0 L 39.0 720.0 Z M 39.0 716.0 "></path></clipPath><g clip-path="url(#clip0x6100012a98a0)"><path d="M 0.0 0.5 L 944.7 0.5 L 944.7 0.5 L 0.0 0.5 Z M 0.0 0.0 " fill="none" stroke="#434343" stroke-width="1.00" transform="matrix(1.00, 0.00, 0.00, -1.00, 40.0, 718.0)"></path></g></g></g><text xml:space="preserve" font-family="BodoniSvtyTwoITCTT-Book,Bodoni SvtyTwo ITC TT" font-size="70.0" fill="#D93D2A" transform="matrix(1.00, 0.00, -0.00, -1.00, 397.4, 632.6)">F</text><text xml:space="preserve" font-family="BodoniSvtyTwoITCTT-Book,Bodoni SvtyTwo ITC TT" font-size="70.0" fill="#D93D2A" transform="matrix(1.00, 0.00, -0.00, -1.00, 435.4, 632.6)">e</text><text xml:space="preserve" font-family="BodoniSvtyTwoITCTT-Book,Bodoni SvtyTwo ITC TT" font-size="70.0" fill="#D93D2A" transform="matrix(1.00, 0.00, -0.00, -1.00, 465.5, 632.6)">a</text><text xml:space="preserve" font-family="BodoniSvtyTwoITCTT-Book,Bodoni SvtyTwo ITC TT" font-size="70.0" fill="#D93D2A" transform="matrix(1.00, 0.00, -0.00, -1.00, 493.3, 632.6)">t</text><text xml:space="preserve" font-family="BodoniSvtyTwoITCTT-Book,Bodoni SvtyTwo ITC TT" font-size="70.0" fill="#D93D2A" transform="matrix(1.00, 0.00, -0.00, -1.00, 513.2, 632.6)">u</text><text xml:space="preserve" font-family="BodoniSvtyTwoITCTT-Book,Bodoni SvtyTwo ITC TT" font-size="70.0" fill="#D93D2A" transform="matrix(1.00, 0.00, -0.00, -1.00, 547.5, 632.6)">r</text><text xml:space="preserve" font-family="BodoniSvtyTwoITCTT-Book,Bodoni SvtyTwo ITC TT" font-size="70.0" fill="#D93D2A" transform="matrix(1.00, 0.00, -0.00, -1.00, 571.1, 632.6)">e</text><text xml:space="preserve" font-family="BodoniSvtyTwoITCTT-Book,Bodoni SvtyTwo ITC TT" font-size="70.0" fill="#D93D2A" transform="matrix(1.00, 0.00, -0.00, -1.00, 601.2, 632.6)">s</text><text xml:space="preserve" font-family="ZapfDingbatsITC,Zapf Dingbats" font-size="21.6" fill="#919191" transform="matrix(1.00, 0.00, -0.00, -1.00, 25.0, 540.3)">❖</text><text xml:space="preserve" font-family="Palatino-Bold,Palatino" font-weight="bold" font-size="36.0" fill="#404040" transform="matrix(1.00, 0.00, -0.00, -1.00, 62.0, 534.5)">C</text><text xml:space="preserve" font-family="Palatino-Bold,Palatino" font-weight="bold" font-size="36.0" fill="#404040" transform="matrix(1.00, 0.00, -0.00, -1.00, 88.0, 534.5)">r</text><text xml:space="preserve" font-family="Palatino-Bold,Palatino" font-weight="bold" font-size="36.0" fill="#404040" transform="matrix(1.00, 0.00, -0.00, -1.00, 102.0, 534.5)">o</text><text xml:space="preserve" font-family="Palatino-Bold,Palatino" font-weight="bold" font-size="36.0" fill="#404040" transform="matrix(1.00, 0.00, -0.00, -1.00, 122.1, 534.5)">w</text><text xml:space="preserve" font-family="Palatino-Bold,Palatino" font-weight="bold" font-size="36.0" fill="#404040" transform="matrix(1.00, 0.00, -0.00, -1.00, 152.0, 534.5)">d</text><text xml:space="preserve" font-family="Palatino-Bold,Palatino" font-weight="bold" font-size="36.0" fill="#404040" transform="matrix(1.00, 0.00, -0.00, -1.00, 174.0, 534.5)"> </text><text xml:space="preserve" font-family="Palatino-Bold,Palatino" font-weight="bold" font-size="36.0" fill="#404040" transform="matrix(1.00, 0.00, -0.00, -1.00, 183.0, 534.5)">S</text><text xml:space="preserve" font-family="Palatino-Bold,Palatino" font-weight="bold" font-size="36.0" fill="#404040" transform="matrix(1.00, 0.00, -0.00, -1.00, 205.0, 534.5)">o</text><text xml:space="preserve" font-family="Palatino-Bold,Palatino" font-weight="bold" font-size="36.0" fill="#404040" transform="matrix(1.00, 0.00, -0.00, -1.00, 225.0, 534.5)">u</text><text xml:space="preserve" font-family="Palatino-Bold,Palatino" font-weight="bold" font-size="36.0" fill="#404040" transform="matrix(1.00, 0.00, -0.00, -1.00, 247.0, 534.5)">r</text><text xml:space="preserve" font-family="Palatino-Bold,Palatino" font-weight="bold" font-size="36.0" fill="#404040" transform="matrix(1.00, 0.00, -0.00, -1.00, 261.0, 534.5)">c</text><text xml:space="preserve" font-family="Palatino-Bold,Palatino" font-weight="bold" font-size="36.0" fill="#404040" transform="matrix(1.00, 0.00, -0.00, -1.00, 277.0, 534.5)">e</text><text xml:space="preserve" font-family="Palatino-Roman,Palatino" font-size="22.5" fill="#404040" transform="matrix(1.00, 0.00, -0.00, -1.00, 62.0, 471.7)">•</text><text xml:space="preserve" font-family="Palatino-Roman,Palatino" font-size="30.0" fill="#404040" transform="matrix(1.00, 0.00, -0.00, -1.00, 99.0, 468.8)">P</text><text xml:space="preserve" font-family="Palatino-Roman,Palatino" font-size="30.0" fill="#404040" transform="matrix(1.00, 0.00, -0.00, -1.00, 117.1, 468.8)">e</text><text xml:space="preserve" font-family="Palatino-Roman,Palatino" font-size="30.0" fill="#404040" transform="matrix(1.00, 0.00, -0.00, -1.00, 131.5, 468.8)">e</text><text xml:space="preserve" font-family="Palatino-Roman,Palatino" font-size="30.0" fill="#404040" transform="matrix(1.00, 0.00, -0.00, -1.00, 145.9, 468.8)">r</text><text xml:space="preserve" font-family="Palatino-Roman,Palatino" font-size="30.0" fill="#404040" transform="matrix(1.00, 0.00, -0.00, -1.00, 157.2, 468.8)">-</text><text xml:space="preserve" font-family="Palatino-Roman,Palatino" font-size="30.0" fill="#404040" transform="matrix(1.00, 0.00, -0.00, -1.00, 167.2, 468.8)">t</text><text xml:space="preserve" font-family="Palatino-Roman,Palatino" font-size="30.0" fill="#404040" transform="matrix(1.00, 0.00, -0.00, -1.00, 177.0, 468.8)">o</text><text xml:space="preserve" font-family="Palatino-Roman,Palatino" font-size="30.0" fill="#404040" transform="matrix(1.00, 0.00, -0.00, -1.00, 193.3, 468.8)">-</text><text xml:space="preserve" font-family="Palatino-Roman,Palatino" font-size="30.0" fill="#404040" transform="matrix(1.00, 0.00, -0.00, -1.00, 203.3, 468.8)">p</text><text xml:space="preserve" font-family="Palatino-Roman,Palatino" font-size="30.0" fill="#404040" transform="matrix(1.00, 0.00, -0.00, -1.00, 221.4, 468.8)">e</text><text xml:space="preserve" font-family="Palatino-Roman,Palatino" font-size="30.0" fill="#404040" transform="matrix(1.00, 0.00, -0.00, -1.00, 235.7, 468.8)">e</text><text xml:space="preserve" font-family="Palatino-Roman,Palatino" font-size="30.0" fill="#404040" transform="matrix(1.00, 0.00, -0.00, -1.00, 250.1, 468.8)">r</text><text xml:space="preserve" font-family="Palatino-Roman,Palatino" font-size="30.0" fill="#404040" transform="matrix(1.00, 0.00, -0.00, -1.00, 262.0, 468.8)"> </text><text xml:space="preserve" font-family="Palatino-Roman,Palatino" font-size="30.0" fill="#404040" transform="matrix(1.00, 0.00, -0.00, -1.00, 269.5, 468.8)">s</text><text xml:space="preserve" font-family="Palatino-Roman,Palatino" font-size="30.0" fill="#404040" transform="matrix(1.00, 0.00, -0.00, -1.00, 282.2, 468.8)">h</text><text xml:space="preserve" font-family="Palatino-Roman,Palatino" font-size="30.0" fill="#404040" transform="matrix(1.00, 0.00, -0.00, -1.00, 299.6, 468.8)">i</text><text xml:space="preserve" font-family="Palatino-Roman,Palatino" font-size="30.0" fill="#404040" transform="matrix(1.00, 0.00, -0.00, -1.00, 308.4, 468.8)">p</text><text xml:space="preserve" font-family="Palatino-Roman,Palatino" font-size="30.0" fill="#404040" transform="matrix(1.00, 0.00, -0.00, -1.00, 326.4, 468.8)">p</text><text xml:space="preserve" font-family="Palatino-Roman,Palatino" font-size="30.0" fill="#404040" transform="matrix(1.00, 0.00, -0.00, -1.00, 344.4, 468.8)">i</text><text xml:space="preserve" font-family="Palatino-Roman,Palatino" font-size="30.0" fill="#404040" transform="matrix(1.00, 0.00, -0.00, -1.00, 353.2, 468.8)">n</text><text xml:space="preserve" font-family="Palatino-Roman,Palatino" font-size="30.0" fill="#404040" transform="matrix(1.00, 0.00, -0.00, -1.00, 370.6, 468.8)">g</text><text xml:space="preserve" font-family="Palatino-Roman,Palatino" font-size="30.0" fill="#404040" transform="matrix(1.00, 0.00, -0.00, -1.00, 387.3, 468.8)"> </text><text xml:space="preserve" font-family="Palatino-Roman,Palatino" font-size="30.0" fill="#404040" transform="matrix(1.00, 0.00, -0.00, -1.00, 394.8, 468.8)">n</text><text xml:space="preserve" font-family="Palatino-Roman,Palatino" font-size="30.0" fill="#404040" transform="matrix(1.00, 0.00, -0.00, -1.00, 412.3, 468.8)">e</text><text xml:space="preserve" font-family="Palatino-Roman,Palatino" font-size="30.0" fill="#404040" transform="matrix(1.00, 0.00, -0.00, -1.00, 426.6, 468.8)">t</text><text xml:space="preserve" font-family="Palatino-Roman,Palatino" font-size="30.0" fill="#404040" transform="matrix(1.00, 0.00, -0.00, -1.00, 436.4, 468.8)">w</text><text xml:space="preserve" font-family="Palatino-Roman,Palatino" font-size="30.0" fill="#404040" transform="matrix(1.00, 0.00, -0.00, -1.00, 461.4, 468.8)">o</text><text xml:space="preserve" font-family="Palatino-Roman,Palatino" font-size="30.0" fill="#404040" transform="matrix(1.00, 0.00, -0.00, -1.00, 477.8, 468.8)">r</text><text xml:space="preserve" font-family="Palatino-Roman,Palatino" font-size="30.0" fill="#404040" transform="matrix(1.00, 0.00, -0.00, -1.00, 489.7, 468.8)">k</text><text xml:space="preserve" font-family="Palatino-Roman,Palatino" font-size="22.5" fill="#404040" transform="matrix(1.00, 0.00, -0.00, -1.00, 62.0, 407.7)">•</text><text xml:space="preserve" font-family="Palatino-Roman,Palatino" font-size="30.0" fill="#404040" transform="matrix(1.00, 0.00, -0.00, -1.00, 99.0, 404.8)">T</text><text xml:space="preserve" font-family="Palatino-Roman,Palatino" font-size="30.0" fill="#404040" transform="matrix(1.00, 0.00, -0.00, -1.00, 114.7, 404.8)">r</text><text xml:space="preserve" font-family="Palatino-Roman,Palatino" font-size="30.0" fill="#404040" transform="matrix(1.00, 0.00, -0.00, -1.00, 126.3, 404.8)">u</text><text xml:space="preserve" font-family="Palatino-Roman,Palatino" font-size="30.0" fill="#404040" transform="matrix(1.00, 0.00, -0.00, -1.00, 144.4, 404.8)">e</text><text xml:space="preserve" font-family="Palatino-Roman,Palatino" font-size="30.0" fill="#404040" transform="matrix(1.00, 0.00, -0.00, -1.00, 158.8, 404.8)"> </text><text xml:space="preserve" font-family="Palatino-Roman,Palatino" font-size="30.0" fill="#404040" transform="matrix(1.00, 0.00, -0.00, -1.00, 166.3, 404.8)">c</text><text xml:space="preserve" font-family="Palatino-Roman,Palatino" font-size="30.0" fill="#404040" transform="matrix(1.00, 0.00, -0.00, -1.00, 179.6, 404.8)">r</text><text xml:space="preserve" font-family="Palatino-Roman,Palatino" font-size="30.0" fill="#404040" transform="matrix(1.00, 0.00, -0.00, -1.00, 190.9, 404.8)">o</text><text xml:space="preserve" font-family="Palatino-Roman,Palatino" font-size="30.0" fill="#404040" transform="matrix(1.00, 0.00, -0.00, -1.00, 207.3, 404.8)">w</text><text xml:space="preserve" font-family="Palatino-Roman,Palatino" font-size="30.0" fill="#404040" transform="matrix(1.00, 0.00, -0.00, -1.00, 232.3, 404.8)">d</text><text xml:space="preserve" font-family="Palatino-Roman,Palatino" font-size="30.0" fill="#404040" transform="matrix(1.00, 0.00, -0.00, -1.00, 250.6, 404.8)"> </text><text xml:space="preserve" font-family="Palatino-Roman,Palatino" font-size="30.0" fill="#404040" transform="matrix(1.00, 0.00, -0.00, -1.00, 258.1, 404.8)">s</text><text xml:space="preserve" font-family="Palatino-Roman,Palatino" font-size="30.0" fill="#404040" transform="matrix(1.00, 0.00, -0.00, -1.00, 270.8, 404.8)">o</text><text xml:space="preserve" font-family="Palatino-Roman,Palatino" font-size="30.0" fill="#404040" transform="matrix(1.00, 0.00, -0.00, -1.00, 287.2, 404.8)">u</text><text xml:space="preserve" font-family="Palatino-Roman,Palatino" font-size="30.0" fill="#404040" transform="matrix(1.00, 0.00, -0.00, -1.00, 305.3, 404.8)">r</text><text xml:space="preserve" font-family="Palatino-Roman,Palatino" font-size="30.0" fill="#404040" transform="matrix(1.00, 0.00, -0.00, -1.00, 316.6, 404.8)">c</text><text xml:space="preserve" font-family="Palatino-Roman,Palatino" font-size="30.0" fill="#404040" transform="matrix(1.00, 0.00, -0.00, -1.00, 329.9, 404.8)">e</text><text xml:space="preserve" font-family="Palatino-Roman,Palatino" font-size="30.0" fill="#404040" transform="matrix(1.00, 0.00, -0.00, -1.00, 344.3, 404.8)">d</text><text xml:space="preserve" font-family="Palatino-Roman,Palatino" font-size="30.0" fill="#404040" transform="matrix(1.00, 0.00, -0.00, -1.00, 362.6, 404.8)"> </text><text xml:space="preserve" font-family="Palatino-Roman,Palatino" font-size="30.0" fill="#404040" transform="matrix(1.00, 0.00, -0.00, -1.00, 370.1, 404.8)">d</text><text xml:space="preserve" font-family="Palatino-Roman,Palatino" font-size="30.0" fill="#404040" transform="matrix(1.00, 0.00, -0.00, -1.00, 388.4, 404.8)">e</text><text xml:space="preserve" font-family="Palatino-Roman,Palatino" font-size="30.0" fill="#404040" transform="matrix(1.00, 0.00, -0.00, -1.00, 402.8, 404.8)">l</text><text xml:space="preserve" font-family="Palatino-Roman,Palatino" font-size="30.0" fill="#404040" transform="matrix(1.00, 0.00, -0.00, -1.00, 411.5, 404.8)">i</text><text xml:space="preserve" font-family="Palatino-Roman,Palatino" font-size="30.0" fill="#404040" transform="matrix(1.00, 0.00, -0.00, -1.00, 420.2, 404.8)">v</text><text xml:space="preserve" font-family="Palatino-Roman,Palatino" font-size="30.0" fill="#404040" transform="matrix(1.00, 0.00, -0.00, -1.00, 437.2, 404.8)">e</text><text xml:space="preserve" font-family="Palatino-Roman,Palatino" font-size="30.0" fill="#404040" transform="matrix(1.00, 0.00, -0.00, -1.00, 451.6, 404.8)">r</text><text xml:space="preserve" font-family="Palatino-Roman,Palatino" font-size="30.0" fill="#404040" transform="matrix(1.00, 0.00, -0.00, -1.00, 463.4, 404.8)">y</text><text xml:space="preserve" font-family="Palatino-Roman,Palatino" font-size="30.0" fill="#404040" transform="matrix(1.00, 0.00, -0.00, -1.00, 480.1, 404.8)"> </text><text xml:space="preserve" font-family="Palatino-Roman,Palatino" font-size="30.0" fill="#404040" transform="matrix(1.00, 0.00, -0.00, -1.00, 99.0, 364.8)">p</text><text xml:space="preserve" font-family="Palatino-Roman,Palatino" font-size="30.0" fill="#404040" transform="matrix(1.00, 0.00, -0.00, -1.00, 117.0, 364.8)">l</text><text xml:space="preserve" font-family="Palatino-Roman,Palatino" font-size="30.0" fill="#404040" transform="matrix(1.00, 0.00, -0.00, -1.00, 125.8, 364.8)">a</text><text xml:space="preserve" font-family="Palatino-Roman,Palatino" font-size="30.0" fill="#404040" transform="matrix(1.00, 0.00, -0.00, -1.00, 140.8, 364.8)">t</text><text xml:space="preserve" font-family="Palatino-Roman,Palatino" font-size="30.0" fill="#404040" transform="matrix(1.00, 0.00, -0.00, -1.00, 150.6, 364.8)">f</text><text xml:space="preserve" font-family="Palatino-Roman,Palatino" font-size="30.0" fill="#404040" transform="matrix(1.00, 0.00, -0.00, -1.00, 160.5, 364.8)">o</text><text xml:space="preserve" font-family="Palatino-Roman,Palatino" font-size="30.0" fill="#404040" transform="matrix(1.00, 0.00, -0.00, -1.00, 176.9, 364.8)">r</text><text xml:space="preserve" font-family="Palatino-Roman,Palatino" font-size="30.0" fill="#404040" transform="matrix(1.00, 0.00, -0.00, -1.00, 188.8, 364.8)">m</text><text xml:space="preserve" font-family="Palatino-Roman,Palatino" font-size="30.0" fill="#404040" transform="matrix(1.00, 0.00, -0.00, -1.00, 215.2, 364.8)"> </text><text xml:space="preserve" font-family="Palatino-Roman,Palatino" font-size="30.0" fill="#404040" transform="matrix(1.00, 0.00, -0.00, -1.00, 222.8, 364.8)">t</text><text xml:space="preserve" font-family="Palatino-Roman,Palatino" font-size="30.0" fill="#404040" transform="matrix(1.00, 0.00, -0.00, -1.00, 232.5, 364.8)">h</text><text xml:space="preserve" font-family="Palatino-Roman,Palatino" font-size="30.0" fill="#404040" transform="matrix(1.00, 0.00, -0.00, -1.00, 250.0, 364.8)">a</text><text xml:space="preserve" font-family="Palatino-Roman,Palatino" font-size="30.0" fill="#404040" transform="matrix(1.00, 0.00, -0.00, -1.00, 265.0, 364.8)">t</text><text xml:space="preserve" font-family="Palatino-Roman,Palatino" font-size="30.0" fill="#404040" transform="matrix(1.00, 0.00, -0.00, -1.00, 274.8, 364.8)"> </text><text xml:space="preserve" font-family="Palatino-Roman,Palatino" font-size="30.0" fill="#404040" transform="matrix(1.00, 0.00, -0.00, -1.00, 282.3, 364.8)">w</text><text xml:space="preserve" font-family="Palatino-Roman,Palatino" font-size="30.0" fill="#404040" transform="matrix(1.00, 0.00, -0.00, -1.00, 307.3, 364.8)">i</text><text xml:space="preserve" font-family="Palatino-Roman,Palatino" font-size="30.0" fill="#404040" transform="matrix(1.00, 0.00, -0.00, -1.00, 316.0, 364.8)">l</text><text xml:space="preserve" font-family="Palatino-Roman,Palatino" font-size="30.0" fill="#404040" transform="matrix(1.00, 0.00, -0.00, -1.00, 324.8, 364.8)">l</text><text xml:space="preserve" font-family="Palatino-Roman,Palatino" font-size="30.0" fill="#404040" transform="matrix(1.00, 0.00, -0.00, -1.00, 333.5, 364.8)"> </text><text xml:space="preserve" font-family="Palatino-Roman,Palatino" font-size="30.0" fill="#404040" transform="matrix(1.00, 0.00, -0.00, -1.00, 341.0, 364.8)">h</text><text xml:space="preserve" font-family="Palatino-Roman,Palatino" font-size="30.0" fill="#404040" transform="matrix(1.00, 0.00, -0.00, -1.00, 358.5, 364.8)">e</text><text xml:space="preserve" font-family="Palatino-Roman,Palatino" font-size="30.0" fill="#404040" transform="matrix(1.00, 0.00, -0.00, -1.00, 372.8, 364.8)">l</text><text xml:space="preserve" font-family="Palatino-Roman,Palatino" font-size="30.0" fill="#404040" transform="matrix(1.00, 0.00, -0.00, -1.00, 381.6, 364.8)">p</text><text xml:space="preserve" font-family="Palatino-Roman,Palatino" font-size="30.0" fill="#404040" transform="matrix(1.00, 0.00, -0.00, -1.00, 399.6, 364.8)"> </text><text xml:space="preserve" font-family="Palatino-Roman,Palatino" font-size="30.0" fill="#404040" transform="matrix(1.00, 0.00, -0.00, -1.00, 407.1, 364.8)">c</text><text xml:space="preserve" font-family="Palatino-Roman,Palatino" font-size="30.0" fill="#404040" transform="matrix(1.00, 0.00, -0.00, -1.00, 420.4, 364.8)">o</text><text xml:space="preserve" font-family="Palatino-Roman,Palatino" font-size="30.0" fill="#404040" transform="matrix(1.00, 0.00, -0.00, -1.00, 436.8, 364.8)">n</text><text xml:space="preserve" font-family="Palatino-Roman,Palatino" font-size="30.0" fill="#404040" transform="matrix(1.00, 0.00, -0.00, -1.00, 454.2, 364.8)">n</text><text xml:space="preserve" font-family="Palatino-Roman,Palatino" font-size="30.0" fill="#404040" transform="matrix(1.00, 0.00, -0.00, -1.00, 471.7, 364.8)">e</text><text xml:space="preserve" font-family="Palatino-Roman,Palatino" font-size="30.0" fill="#404040" transform="matrix(1.00, 0.00, -0.00, -1.00, 486.1, 364.8)">c</text><text xml:space="preserve" font-family="Palatino-Roman,Palatino" font-size="30.0" fill="#404040" transform="matrix(1.00, 0.00, -0.00, -1.00, 499.4, 364.8)">t</text><text xml:space="preserve" font-family="Palatino-Roman,Palatino" font-size="30.0" fill="#404040" transform="matrix(1.00, 0.00, -0.00, -1.00, 509.2, 364.8)"> </text><text xml:space="preserve" font-family="Palatino-Roman,Palatino" font-size="30.0" fill="#404040" transform="matrix(1.00, 0.00, -0.00, -1.00, 99.0, 324.8)">t</text><text xml:space="preserve" font-family="Palatino-Roman,Palatino" font-size="30.0" fill="#404040" transform="matrix(1.00, 0.00, -0.00, -1.00, 108.8, 324.8)">r</text><text xml:space="preserve" font-family="Palatino-Roman,Palatino" font-size="30.0" fill="#404040" transform="matrix(1.00, 0.00, -0.00, -1.00, 120.6, 324.8)">a</text><text xml:space="preserve" font-family="Palatino-Roman,Palatino" font-size="30.0" fill="#404040" transform="matrix(1.00, 0.00, -0.00, -1.00, 135.6, 324.8)">v</text><text xml:space="preserve" font-family="Palatino-Roman,Palatino" font-size="30.0" fill="#404040" transform="matrix(1.00, 0.00, -0.00, -1.00, 152.6, 324.8)">e</text><text xml:space="preserve" font-family="Palatino-Roman,Palatino" font-size="30.0" fill="#404040" transform="matrix(1.00, 0.00, -0.00, -1.00, 167.0, 324.8)">l</text><text xml:space="preserve" font-family="Palatino-Roman,Palatino" font-size="30.0" fill="#404040" transform="matrix(1.00, 0.00, -0.00, -1.00, 175.7, 324.8)">e</text><text xml:space="preserve" font-family="Palatino-Roman,Palatino" font-size="30.0" fill="#404040" transform="matrix(1.00, 0.00, -0.00, -1.00, 190.1, 324.8)">r</text><text xml:space="preserve" font-family="Palatino-Roman,Palatino" font-size="30.0" fill="#404040" transform="matrix(1.00, 0.00, -0.00, -1.00, 201.9, 324.8)">s</text><text xml:space="preserve" font-family="Palatino-Roman,Palatino" font-size="30.0" fill="#404040" transform="matrix(1.00, 0.00, -0.00, -1.00, 214.6, 324.8)"> </text><text xml:space="preserve" font-family="Palatino-Roman,Palatino" font-size="30.0" fill="#404040" transform="matrix(1.00, 0.00, -0.00, -1.00, 222.1, 324.8)">a</text><text xml:space="preserve" font-family="Palatino-Roman,Palatino" font-size="30.0" fill="#404040" transform="matrix(1.00, 0.00, -0.00, -1.00, 237.1, 324.8)">n</text><text xml:space="preserve" font-family="Palatino-Roman,Palatino" font-size="30.0" fill="#404040" transform="matrix(1.00, 0.00, -0.00, -1.00, 254.6, 324.8)">d</text><text xml:space="preserve" font-family="Palatino-Roman,Palatino" font-size="30.0" fill="#404040" transform="matrix(1.00, 0.00, -0.00, -1.00, 272.9, 324.8)"> </text><text xml:space="preserve" font-family="Palatino-Roman,Palatino" font-size="30.0" fill="#404040" transform="matrix(1.00, 0.00, -0.00, -1.00, 280.4, 324.8)">c</text><text xml:space="preserve" font-family="Palatino-Roman,Palatino" font-size="30.0" fill="#404040" transform="matrix(1.00, 0.00, -0.00, -1.00, 293.7, 324.8)">u</text><text xml:space="preserve" font-family="Palatino-Roman,Palatino" font-size="30.0" fill="#404040" transform="matrix(1.00, 0.00, -0.00, -1.00, 311.8, 324.8)">s</text><text xml:space="preserve" font-family="Palatino-Roman,Palatino" font-size="30.0" fill="#404040" transform="matrix(1.00, 0.00, -0.00, -1.00, 324.5, 324.8)">t</text><text xml:space="preserve" font-family="Palatino-Roman,Palatino" font-size="30.0" fill="#404040" transform="matrix(1.00, 0.00, -0.00, -1.00, 334.3, 324.8)">o</text><text xml:space="preserve" font-family="Palatino-Roman,Palatino" font-size="30.0" fill="#404040" transform="matrix(1.00, 0.00, -0.00, -1.00, 350.7, 324.8)">m</text><text xml:space="preserve" font-family="Palatino-Roman,Palatino" font-size="30.0" fill="#404040" transform="matrix(1.00, 0.00, -0.00, -1.00, 377.1, 324.8)">e</text><text xml:space="preserve" font-family="Palatino-Roman,Palatino" font-size="30.0" fill="#404040" transform="matrix(1.00, 0.00, -0.00, -1.00, 391.5, 324.8)">r</text><text xml:space="preserve" font-family="Palatino-Roman,Palatino" font-size="30.0" fill="#404040" transform="matrix(1.00, 0.00, -0.00, -1.00, 403.4, 324.8)">s</text><text xml:space="preserve" font-family="Palatino-Roman,Palatino" font-size="30.0" fill="#404040" transform="matrix(1.00, 0.00, -0.00, -1.00, 416.1, 324.8)"> </text><text xml:space="preserve" font-family="Palatino-Roman,Palatino" font-size="30.0" fill="#404040" transform="matrix(1.00, 0.00, -0.00, -1.00, 423.6, 324.8)">a</text><text xml:space="preserve" font-family="Palatino-Roman,Palatino" font-size="30.0" fill="#404040" transform="matrix(1.00, 0.00, -0.00, -1.00, 438.6, 324.8)">l</text><text xml:space="preserve" font-family="Palatino-Roman,Palatino" font-size="30.0" fill="#404040" transform="matrix(1.00, 0.00, -0.00, -1.00, 447.3, 324.8)">l</text><text xml:space="preserve" font-family="Palatino-Roman,Palatino" font-size="30.0" fill="#404040" transform="matrix(1.00, 0.00, -0.00, -1.00, 456.0, 324.8)"> </text><text xml:space="preserve" font-family="Palatino-Roman,Palatino" font-size="30.0" fill="#404040" transform="matrix(1.00, 0.00, -0.00, -1.00, 99.0, 284.8)">a</text><text xml:space="preserve" font-family="Palatino-Roman,Palatino" font-size="30.0" fill="#404040" transform="matrix(1.00, 0.00, -0.00, -1.00, 114.0, 284.8)">r</text><text xml:space="preserve" font-family="Palatino-Roman,Palatino" font-size="30.0" fill="#404040" transform="matrix(1.00, 0.00, -0.00, -1.00, 125.3, 284.8)">o</text><text xml:space="preserve" font-family="Palatino-Roman,Palatino" font-size="30.0" fill="#404040" transform="matrix(1.00, 0.00, -0.00, -1.00, 141.7, 284.8)">u</text><text xml:space="preserve" font-family="Palatino-Roman,Palatino" font-size="30.0" fill="#404040" transform="matrix(1.00, 0.00, -0.00, -1.00, 159.8, 284.8)">n</text><text xml:space="preserve" font-family="Palatino-Roman,Palatino" font-size="30.0" fill="#404040" transform="matrix(1.00, 0.00, -0.00, -1.00, 177.2, 284.8)">d</text><text xml:space="preserve" font-family="Palatino-Roman,Palatino" font-size="30.0" fill="#404040" transform="matrix(1.00, 0.00, -0.00, -1.00, 195.6, 284.8)"> </text><text xml:space="preserve" font-family="Palatino-Roman,Palatino" font-size="30.0" fill="#404040" transform="matrix(1.00, 0.00, -0.00, -1.00, 203.1, 284.8)">t</text><text xml:space="preserve" font-family="Palatino-Roman,Palatino" font-size="30.0" fill="#404040" transform="matrix(1.00, 0.00, -0.00, -1.00, 212.9, 284.8)">h</text><text xml:space="preserve" font-family="Palatino-Roman,Palatino" font-size="30.0" fill="#404040" transform="matrix(1.00, 0.00, -0.00, -1.00, 230.3, 284.8)">e</text><text xml:space="preserve" font-family="Palatino-Roman,Palatino" font-size="30.0" fill="#404040" transform="matrix(1.00, 0.00, -0.00, -1.00, 244.7, 284.8)"> </text><text xml:space="preserve" font-family="Palatino-Roman,Palatino" font-size="30.0" fill="#404040" transform="matrix(1.00, 0.00, -0.00, -1.00, 252.2, 284.8)">w</text><text xml:space="preserve" font-family="Palatino-Roman,Palatino" font-size="30.0" fill="#404040" transform="matrix(1.00, 0.00, -0.00, -1.00, 277.2, 284.8)">o</text><text xml:space="preserve" font-family="Palatino-Roman,Palatino" font-size="30.0" fill="#404040" transform="matrix(1.00, 0.00, -0.00, -1.00, 293.6, 284.8)">r</text><text xml:space="preserve" font-family="Palatino-Roman,Palatino" font-size="30.0" fill="#404040" transform="matrix(1.00, 0.00, -0.00, -1.00, 305.4, 284.8)">l</text><text xml:space="preserve" font-family="Palatino-Roman,Palatino" font-size="30.0" fill="#404040" transform="matrix(1.00, 0.00, -0.00, -1.00, 314.2, 284.8)">d</text><text xml:space="preserve" font-family="Palatino-Roman,Palatino" font-size="30.0" fill="#404040" transform="matrix(1.00, 0.00, -0.00, -1.00, 332.5, 284.8)">.</text><text xml:space="preserve" font-family="Palatino-Roman,Palatino" font-size="30.0" fill="#404040" transform="matrix(1.00, 0.00, -0.00, -1.00, 340.0, 284.8)"> </text><image xlink:href="6AE8F0A8B6C86C5A86A0A4CD522F0E5E.jpeg" width="1280.00" height="853.00" transform="matrix(-0.37, 0.00, 0.00, -0.37, 1001.3, 572.8)"></image><image xlink:href="E65C5048709B350CC90CFE81378D890E.png" width="497.00" height="344.00" transform="matrix(-1.00, 0.00, 0.00, 1.00, 1011.3, 235.8)"></image><text xml:space="preserve" font-family="ZapfDingbatsITC,Zapf Dingbats" font-size="21.6" fill="#919191" transform="matrix(1.00, 0.00, -0.00, -1.00, 25.9, 182.8)">❖</text><text xml:space="preserve" font-family="Palatino-Bold,Palatino" font-weight="bold" font-size="36.0" fill="#404040" transform="matrix(1.00, 0.00, -0.00, -1.00, 62.9, 177.0)">C</text><text xml:space="preserve" font-family="Palatino-Bold,Palatino" font-weight="bold" font-size="36.0" fill="#404040" transform="matrix(1.00, 0.00, -0.00, -1.00, 88.9, 177.0)">h</text><text xml:space="preserve" font-family="Palatino-Bold,Palatino" font-weight="bold" font-size="36.0" fill="#404040" transform="matrix(1.00, 0.00, -0.00, -1.00, 110.9, 177.0)">e</text><text xml:space="preserve" font-family="Palatino-Bold,Palatino" font-weight="bold" font-size="36.0" fill="#404040" transform="matrix(1.00, 0.00, -0.00, -1.00, 128.9, 177.0)">a</text><text xml:space="preserve" font-family="Palatino-Bold,Palatino" font-weight="bold" font-size="36.0" fill="#404040" transform="matrix(1.00, 0.00, -0.00, -1.00, 146.9, 177.0)">p</text><text xml:space="preserve" font-family="Palatino-Bold,Palatino" font-weight="bold" font-size="36.0" fill="#404040" transform="matrix(1.00, 0.00, -0.00, -1.00, 168.9, 177.0)">e</text><text xml:space="preserve" font-family="Palatino-Bold,Palatino" font-weight="bold" font-size="36.0" fill="#404040" transform="matrix(1.00, 0.00, -0.00, -1.00, 186.9, 177.0)">r</text><text xml:space="preserve" font-family="Palatino-Roman,Palatino" font-size="22.5" fill="#404040" transform="matrix(1.00, 0.00, -0.00, -1.00, 62.9, 114.2)">•</text><text xml:space="preserve" font-family="Palatino-Roman,Palatino" font-size="30.0" fill="#404040" transform="matrix(1.00, 0.00, -0.00, -1.00, 99.9, 111.3)">L</text><text xml:space="preserve" font-family="Palatino-Roman,Palatino" font-size="30.0" fill="#404040" transform="matrix(1.00, 0.00, -0.00, -1.00, 118.2, 111.3)">i</text><text xml:space="preserve" font-family="Palatino-Roman,Palatino" font-size="30.0" fill="#404040" transform="matrix(1.00, 0.00, -0.00, -1.00, 127.0, 111.3)">e</text><text xml:space="preserve" font-family="Palatino-Roman,Palatino" font-size="30.0" fill="#404040" transform="matrix(1.00, 0.00, -0.00, -1.00, 141.3, 111.3)">f</text><text xml:space="preserve" font-family="Palatino-Roman,Palatino" font-size="30.0" fill="#404040" transform="matrix(1.00, 0.00, -0.00, -1.00, 151.3, 111.3)">e</text><text xml:space="preserve" font-family="Palatino-Roman,Palatino" font-size="30.0" fill="#404040" transform="matrix(1.00, 0.00, -0.00, -1.00, 165.7, 111.3)">r</text><text xml:space="preserve" font-family="Palatino-Roman,Palatino" font-size="30.0" fill="#404040" transform="matrix(1.00, 0.00, -0.00, -1.00, 177.5, 111.3)">n</text><text xml:space="preserve" font-family="Palatino-Roman,Palatino" font-size="30.0" fill="#404040" transform="matrix(1.00, 0.00, -0.00, -1.00, 195.0, 111.3)"> </text><text xml:space="preserve" font-family="Palatino-Roman,Palatino" font-size="30.0" fill="#404040" transform="matrix(1.00, 0.00, -0.00, -1.00, 202.5, 111.3)">h</text><text xml:space="preserve" font-family="Palatino-Roman,Palatino" font-size="30.0" fill="#404040" transform="matrix(1.00, 0.00, -0.00, -1.00, 220.0, 111.3)">e</text><text xml:space="preserve" font-family="Palatino-Roman,Palatino" font-size="30.0" fill="#404040" transform="matrix(1.00, 0.00, -0.00, -1.00, 234.3, 111.3)">l</text><text xml:space="preserve" font-family="Palatino-Roman,Palatino" font-size="30.0" fill="#404040" transform="matrix(1.00, 0.00, -0.00, -1.00, 243.1, 111.3)">p</text><text xml:space="preserve" font-family="Palatino-Roman,Palatino" font-size="30.0" fill="#404040" transform="matrix(1.00, 0.00, -0.00, -1.00, 261.1, 111.3)">s</text><text xml:space="preserve" font-family="Palatino-Roman,Palatino" font-size="30.0" fill="#404040" transform="matrix(1.00, 0.00, -0.00, -1.00, 273.8, 111.3)"> </text><text xml:space="preserve" font-family="Palatino-Roman,Palatino" font-size="30.0" fill="#404040" transform="matrix(1.00, 0.00, -0.00, -1.00, 281.3, 111.3)">t</text><text xml:space="preserve" font-family="Palatino-Roman,Palatino" font-size="30.0" fill="#404040" transform="matrix(1.00, 0.00, -0.00, -1.00, 291.1, 111.3)">o</text><text xml:space="preserve" font-family="Palatino-Roman,Palatino" font-size="30.0" fill="#404040" transform="matrix(1.00, 0.00, -0.00, -1.00, 307.5, 111.3)"> </text><text xml:space="preserve" font-family="Palatino-Roman,Palatino" font-size="30.0" fill="#404040" transform="matrix(1.00, 0.00, -0.00, -1.00, 315.0, 111.3)">m</text><text xml:space="preserve" font-family="Palatino-Roman,Palatino" font-size="30.0" fill="#404040" transform="matrix(1.00, 0.00, -0.00, -1.00, 341.5, 111.3)">o</text><text xml:space="preserve" font-family="Palatino-Roman,Palatino" font-size="30.0" fill="#404040" transform="matrix(1.00, 0.00, -0.00, -1.00, 357.8, 111.3)">n</text><text xml:space="preserve" font-family="Palatino-Roman,Palatino" font-size="30.0" fill="#404040" transform="matrix(1.00, 0.00, -0.00, -1.00, 375.3, 111.3)">e</text><text xml:space="preserve" font-family="Palatino-Roman,Palatino" font-size="30.0" fill="#404040" transform="matrix(1.00, 0.00, -0.00, -1.00, 389.7, 111.3)">t</text><text xml:space="preserve" font-family="Palatino-Roman,Palatino" font-size="30.0" fill="#404040" transform="matrix(1.00, 0.00, -0.00, -1.00, 399.4, 111.3)">i</text><text xml:space="preserve" font-family="Palatino-Roman,Palatino" font-size="30.0" fill="#404040" transform="matrix(1.00, 0.00, -0.00, -1.00, 408.2, 111.3)">z</text><text xml:space="preserve" font-family="Palatino-Roman,Palatino" font-size="30.0" fill="#404040" transform="matrix(1.00, 0.00, -0.00, -1.00, 423.2, 111.3)">e</text><text xml:space="preserve" font-family="Palatino-Roman,Palatino" font-size="30.0" fill="#404040" transform="matrix(1.00, 0.00, -0.00, -1.00, 437.5, 111.3)"> </text><text xml:space="preserve" font-family="Palatino-Roman,Palatino" font-size="30.0" fill="#404040" transform="matrix(1.00, 0.00, -0.00, -1.00, 445.0, 111.3)">t</text><text xml:space="preserve" font-family="Palatino-Roman,Palatino" font-size="30.0" fill="#404040" transform="matrix(1.00, 0.00, -0.00, -1.00, 454.8, 111.3)">h</text><text xml:space="preserve" font-family="Palatino-Roman,Palatino" font-size="30.0" fill="#404040" transform="matrix(1.00, 0.00, -0.00, -1.00, 472.3, 111.3)">e</text><text xml:space="preserve" font-family="Palatino-Roman,Palatino" font-size="30.0" fill="#404040" transform="matrix(1.00, 0.00, -0.00, -1.00, 486.7, 111.3)"> </text><text xml:space="preserve" font-family="Palatino-Roman,Palatino" font-size="30.0" fill="#404040" transform="matrix(1.00, 0.00, -0.00, -1.00, 494.2, 111.3)">e</text><text xml:space="preserve" font-family="Palatino-Roman,Palatino" font-size="30.0" fill="#404040" transform="matrix(1.00, 0.00, -0.00, -1.00, 508.5, 111.3)">x</text><text xml:space="preserve" font-family="Palatino-Roman,Palatino" font-size="30.0" fill="#404040" transform="matrix(1.00, 0.00, -0.00, -1.00, 524.0, 111.3)">t</text><text xml:space="preserve" font-family="Palatino-Roman,Palatino" font-size="30.0" fill="#404040" transform="matrix(1.00, 0.00, -0.00, -1.00, 533.8, 111.3)">r</text><text xml:space="preserve" font-family="Palatino-Roman,Palatino" font-size="30.0" fill="#404040" transform="matrix(1.00, 0.00, -0.00, -1.00, 545.7, 111.3)">a</text><text xml:space="preserve" font-family="Palatino-Roman,Palatino" font-size="30.0" fill="#404040" transform="matrix(1.00, 0.00, -0.00, -1.00, 560.7, 111.3)"> </text><text xml:space="preserve" font-family="Palatino-Roman,Palatino" font-size="30.0" fill="#404040" transform="matrix(1.00, 0.00, -0.00, -1.00, 568.2, 111.3)">c</text><text xml:space="preserve" font-family="Palatino-Roman,Palatino" font-size="30.0" fill="#404040" transform="matrix(1.00, 0.00, -0.00, -1.00, 581.5, 111.3)">a</text><text xml:space="preserve" font-family="Palatino-Roman,Palatino" font-size="30.0" fill="#404040" transform="matrix(1.00, 0.00, -0.00, -1.00, 596.5, 111.3)">r</text><text xml:space="preserve" font-family="Palatino-Roman,Palatino" font-size="30.0" fill="#404040" transform="matrix(1.00, 0.00, -0.00, -1.00, 608.3, 111.3)">r</text><text xml:space="preserve" font-family="Palatino-Roman,Palatino" font-size="30.0" fill="#404040" transform="matrix(1.00, 0.00, -0.00, -1.00, 620.2, 111.3)">y</text><text xml:space="preserve" font-family="Palatino-Roman,Palatino" font-size="30.0" fill="#404040" transform="matrix(1.00, 0.00, -0.00, -1.00, 636.9, 111.3)">i</text><text xml:space="preserve" font-family="Palatino-Roman,Palatino" font-size="30.0" fill="#404040" transform="matrix(1.00, 0.00, -0.00, -1.00, 645.6, 111.3)">n</text><text xml:space="preserve" font-family="Palatino-Roman,Palatino" font-size="30.0" fill="#404040" transform="matrix(1.00, 0.00, -0.00, -1.00, 663.1, 111.3)">g</text><text xml:space="preserve" font-family="Palatino-Roman,Palatino" font-size="30.0" fill="#404040" transform="matrix(1.00, 0.00, -0.00, -1.00, 679.8, 111.3)"> </text><text xml:space="preserve" font-family="Palatino-Roman,Palatino" font-size="30.0" fill="#404040" transform="matrix(1.00, 0.00, -0.00, -1.00, 687.3, 111.3)">s</text><text xml:space="preserve" font-family="Palatino-Roman,Palatino" font-size="30.0" fill="#404040" transform="matrix(1.00, 0.00, -0.00, -1.00, 700.0, 111.3)">p</text><text xml:space="preserve" font-family="Palatino-Roman,Palatino" font-size="30.0" fill="#404040" transform="matrix(1.00, 0.00, -0.00, -1.00, 718.0, 111.3)">a</text><text xml:space="preserve" font-family="Palatino-Roman,Palatino" font-size="30.0" fill="#404040" transform="matrix(1.00, 0.00, -0.00, -1.00, 733.0, 111.3)">c</text><text xml:space="preserve" font-family="Palatino-Roman,Palatino" font-size="30.0" fill="#404040" transform="matrix(1.00, 0.00, -0.00, -1.00, 746.3, 111.3)">e</text><text xml:space="preserve" font-family="Palatino-Roman,Palatino" font-size="30.0" fill="#404040" transform="matrix(1.00, 0.00, -0.00, -1.00, 760.7, 111.3)"> </text><text xml:space="preserve" font-family="Palatino-Roman,Palatino" font-size="30.0" fill="#404040" transform="matrix(1.00, 0.00, -0.00, -1.00, 768.2, 111.3)">o</text><text xml:space="preserve" font-family="Palatino-Roman,Palatino" font-size="30.0" fill="#404040" transform="matrix(1.00, 0.00, -0.00, -1.00, 784.5, 111.3)">f</text><text xml:space="preserve" font-family="Palatino-Roman,Palatino" font-size="30.0" fill="#404040" transform="matrix(1.00, 0.00, -0.00, -1.00, 794.5, 111.3)"> </text><text xml:space="preserve" font-family="Palatino-Roman,Palatino" font-size="30.0" fill="#404040" transform="matrix(1.00, 0.00, -0.00, -1.00, 802.0, 111.3)">d</text><text xml:space="preserve" font-family="Palatino-Roman,Palatino" font-size="30.0" fill="#404040" transform="matrix(1.00, 0.00, -0.00, -1.00, 820.4, 111.3)">r</text><text xml:space="preserve" font-family="Palatino-Roman,Palatino" font-size="30.0" fill="#404040" transform="matrix(1.00, 0.00, -0.00, -1.00, 832.2, 111.3)">i</text><text xml:space="preserve" font-family="Palatino-Roman,Palatino" font-size="30.0" fill="#404040" transform="matrix(1.00, 0.00, -0.00, -1.00, 840.9, 111.3)">v</text><text xml:space="preserve" font-family="Palatino-Roman,Palatino" font-size="30.0" fill="#404040" transform="matrix(1.00, 0.00, -0.00, -1.00, 857.9, 111.3)">e</text><text xml:space="preserve" font-family="Palatino-Roman,Palatino" font-size="30.0" fill="#404040" transform="matrix(1.00, 0.00, -0.00, -1.00, 872.3, 111.3)">r</text><text xml:space="preserve" font-family="Palatino-Roman,Palatino" font-size="30.0" fill="#404040" transform="matrix(1.00, 0.00, -0.00, -1.00, 884.1, 111.3)">s</text><text xml:space="preserve" font-family="Palatino-Roman,Palatino" font-size="30.0" fill="#404040" transform="matrix(1.00, 0.00, -0.00, -1.00, 896.8, 111.3)"> </text><text xml:space="preserve" font-family="Palatino-Roman,Palatino" font-size="30.0" fill="#404040" transform="matrix(1.00, 0.00, -0.00, -1.00, 904.3, 111.3)">t</text><text xml:space="preserve" font-family="Palatino-Roman,Palatino" font-size="30.0" fill="#404040" transform="matrix(1.00, 0.00, -0.00, -1.00, 914.1, 111.3)">h</text><text xml:space="preserve" font-family="Palatino-Roman,Palatino" font-size="30.0" fill="#404040" transform="matrix(1.00, 0.00, -0.00, -1.00, 931.6, 111.3)">a</text><text xml:space="preserve" font-family="Palatino-Roman,Palatino" font-size="30.0" fill="#404040" transform="matrix(1.00, 0.00, -0.00, -1.00, 946.6, 111.3)">t</text><text xml:space="preserve" font-family="Palatino-Roman,Palatino" font-size="30.0" fill="#404040" transform="matrix(1.00, 0.00, -0.00, -1.00, 956.4, 111.3)"> </text><text xml:space="preserve" font-family="Palatino-Roman,Palatino" font-size="30.0" fill="#404040" transform="matrix(1.00, 0.00, -0.00, -1.00, 99.9, 71.3)">a</text><text xml:space="preserve" font-family="Palatino-Roman,Palatino" font-size="30.0" fill="#404040" transform="matrix(1.00, 0.00, -0.00, -1.00, 114.9, 71.3)">r</text><text xml:space="preserve" font-family="Palatino-Roman,Palatino" font-size="30.0" fill="#404040" transform="matrix(1.00, 0.00, -0.00, -1.00, 126.2, 71.3)">e</text><text xml:space="preserve" font-family="Palatino-Roman,Palatino" font-size="30.0" fill="#404040" transform="matrix(1.00, 0.00, -0.00, -1.00, 140.6, 71.3)"> </text><text xml:space="preserve" font-family="Palatino-Roman,Palatino" font-size="30.0" fill="#404040" transform="matrix(1.00, 0.00, -0.00, -1.00, 148.1, 71.3)">a</text><text xml:space="preserve" font-family="Palatino-Roman,Palatino" font-size="30.0" fill="#404040" transform="matrix(1.00, 0.00, -0.00, -1.00, 163.1, 71.3)">l</text><text xml:space="preserve" font-family="Palatino-Roman,Palatino" font-size="30.0" fill="#404040" transform="matrix(1.00, 0.00, -0.00, -1.00, 171.8, 71.3)">r</text><text xml:space="preserve" font-family="Palatino-Roman,Palatino" font-size="30.0" fill="#404040" transform="matrix(1.00, 0.00, -0.00, -1.00, 183.2, 71.3)">e</text><text xml:space="preserve" font-family="Palatino-Roman,Palatino" font-size="30.0" fill="#404040" transform="matrix(1.00, 0.00, -0.00, -1.00, 197.5, 71.3)">a</text><text xml:space="preserve" font-family="Palatino-Roman,Palatino" font-size="30.0" fill="#404040" transform="matrix(1.00, 0.00, -0.00, -1.00, 212.5, 71.3)">d</text><text xml:space="preserve" font-family="Palatino-Roman,Palatino" font-size="30.0" fill="#404040" transform="matrix(1.00, 0.00, -0.00, -1.00, 230.8, 71.3)">y</text><text xml:space="preserve" font-family="Palatino-Roman,Palatino" font-size="30.0" fill="#404040" transform="matrix(1.00, 0.00, -0.00, -1.00, 247.5, 71.3)"> </text><text xml:space="preserve" font-family="Palatino-Roman,Palatino" font-size="30.0" fill="#404040" transform="matrix(1.00, 0.00, -0.00, -1.00, 255.0, 71.3)">o</text><text xml:space="preserve" font-family="Palatino-Roman,Palatino" font-size="30.0" fill="#404040" transform="matrix(1.00, 0.00, -0.00, -1.00, 271.4, 71.3)">n</text><text xml:space="preserve" font-family="Palatino-Roman,Palatino" font-size="30.0" fill="#404040" transform="matrix(1.00, 0.00, -0.00, -1.00, 288.9, 71.3)"> </text><text xml:space="preserve" font-family="Palatino-Roman,Palatino" font-size="30.0" fill="#404040" transform="matrix(1.00, 0.00, -0.00, -1.00, 296.4, 71.3)">t</text><text xml:space="preserve" font-family="Palatino-Roman,Palatino" font-size="30.0" fill="#404040" transform="matrix(1.00, 0.00, -0.00, -1.00, 306.2, 71.3)">h</text><text xml:space="preserve" font-family="Palatino-Roman,Palatino" font-size="30.0" fill="#404040" transform="matrix(1.00, 0.00, -0.00, -1.00, 323.6, 71.3)">e</text><text xml:space="preserve" font-family="Palatino-Roman,Palatino" font-size="30.0" fill="#404040" transform="matrix(1.00, 0.00, -0.00, -1.00, 338.0, 71.3)">i</text><text xml:space="preserve" font-family="Palatino-Roman,Palatino" font-size="30.0" fill="#404040" transform="matrix(1.00, 0.00, -0.00, -1.00, 346.7, 71.3)">r</text><text xml:space="preserve" font-family="Palatino-Roman,Palatino" font-size="30.0" fill="#404040" transform="matrix(1.00, 0.00, -0.00, -1.00, 358.6, 71.3)"> </text><text xml:space="preserve" font-family="Palatino-Roman,Palatino" font-size="30.0" fill="#404040" transform="matrix(1.00, 0.00, -0.00, -1.00, 366.1, 71.3)">w</text><text xml:space="preserve" font-family="Palatino-Roman,Palatino" font-size="30.0" fill="#404040" transform="matrix(1.00, 0.00, -0.00, -1.00, 391.1, 71.3)">a</text><text xml:space="preserve" font-family="Palatino-Roman,Palatino" font-size="30.0" fill="#404040" transform="matrix(1.00, 0.00, -0.00, -1.00, 406.1, 71.3)">y</text><text xml:space="preserve" font-family="Palatino-Roman,Palatino" font-size="30.0" fill="#404040" transform="matrix(1.00, 0.00, -0.00, -1.00, 422.8, 71.3)"> </text><text xml:space="preserve" font-family="Palatino-Roman,Palatino" font-size="30.0" fill="#404040" transform="matrix(1.00, 0.00, -0.00, -1.00, 430.3, 71.3)">t</text><text xml:space="preserve" font-family="Palatino-Roman,Palatino" font-size="30.0" fill="#404040" transform="matrix(1.00, 0.00, -0.00, -1.00, 440.1, 71.3)">o</text><text xml:space="preserve" font-family="Palatino-Roman,Palatino" font-size="30.0" fill="#404040" transform="matrix(1.00, 0.00, -0.00, -1.00, 456.4, 71.3)"> </text><text xml:space="preserve" font-family="Palatino-Roman,Palatino" font-size="30.0" fill="#404040" transform="matrix(1.00, 0.00, -0.00, -1.00, 463.9, 71.3)">t</text><text xml:space="preserve" font-family="Palatino-Roman,Palatino" font-size="30.0" fill="#404040" transform="matrix(1.00, 0.00, -0.00, -1.00, 473.7, 71.3)">h</text><text xml:space="preserve" font-family="Palatino-Roman,Palatino" font-size="30.0" fill="#404040" transform="matrix(1.00, 0.00, -0.00, -1.00, 491.2, 71.3)">e</text><text xml:space="preserve" font-family="Palatino-Roman,Palatino" font-size="30.0" fill="#404040" transform="matrix(1.00, 0.00, -0.00, -1.00, 505.6, 71.3)"> </text><text xml:space="preserve" font-family="Palatino-Roman,Palatino" font-size="30.0" fill="#404040" transform="matrix(1.00, 0.00, -0.00, -1.00, 513.1, 71.3)">d</text><text xml:space="preserve" font-family="Palatino-Roman,Palatino" font-size="30.0" fill="#404040" transform="matrix(1.00, 0.00, -0.00, -1.00, 531.4, 71.3)">e</text><text xml:space="preserve" font-family="Palatino-Roman,Palatino" font-size="30.0" fill="#404040" transform="matrix(1.00, 0.00, -0.00, -1.00, 545.8, 71.3)">s</text><text xml:space="preserve" font-family="Palatino-Roman,Palatino" font-size="30.0" fill="#404040" transform="matrix(1.00, 0.00, -0.00, -1.00, 558.5, 71.3)">t</text><text xml:space="preserve" font-family="Palatino-Roman,Palatino" font-size="30.0" fill="#404040" transform="matrix(1.00, 0.00, -0.00, -1.00, 568.3, 71.3)">i</text><text xml:space="preserve" font-family="Palatino-Roman,Palatino" font-size="30.0" fill="#404040" transform="matrix(1.00, 0.00, -0.00, -1.00, 577.0, 71.3)">n</text><text xml:space="preserve" font-family="Palatino-Roman,Palatino" font-size="30.0" fill="#404040" transform="matrix(1.00, 0.00, -0.00, -1.00, 594.5, 71.3)">a</text><text xml:space="preserve" font-family="Palatino-Roman,Palatino" font-size="30.0" fill="#404040" transform="matrix(1.00, 0.00, -0.00, -1.00, 609.5, 71.3)">t</text><text xml:space="preserve" font-family="Palatino-Roman,Palatino" font-size="30.0" fill="#404040" transform="matrix(1.00, 0.00, -0.00, -1.00, 619.2, 71.3)">i</text><text xml:space="preserve" font-family="Palatino-Roman,Palatino" font-size="30.0" fill="#404040" transform="matrix(1.00, 0.00, -0.00, -1.00, 628.0, 71.3)">o</text><text xml:space="preserve" font-family="Palatino-Roman,Palatino" font-size="30.0" fill="#404040" transform="matrix(1.00, 0.00, -0.00, -1.00, 644.3, 71.3)">n</text><text xml:space="preserve" font-family="Palatino-Roman,Palatino" font-size="30.0" fill="#404040" transform="matrix(1.00, 0.00, -0.00, -1.00, 661.8, 71.3)">.</text></g></svg>