<?xml version="1.0" encoding="UTF-8" standalone="no"?><svg xmlns="http://www.w3.org/2000/svg" xmlns:xlink="http://www.w3.org/1999/xlink" clip-rule="evenodd" stroke-miterlimit="10" viewBox="0 0 1024 768"><desc>SVG generated by Keynote</desc><defs></defs><g transform="matrix(1.00, 0.00, -0.00, -1.00, 0.0, 768.0)"><g><clipPath id="clip0x6100010ae4c0"><path d="M 0.0 768.0 L 1024.0 768.0 L 1024.0 0.0 L 0.0 0.0 Z M 0.0 768.0 "></path></clipPath><g clip-path="url(#clip0x6100010ae4c0)"><image xlink:href="5A8C990C4A4597A5304AC9F14CDA7C87.jpeg" width="2048.00" height="1536.00" transform="matrix(0.50, 0.00, -0.00, -0.50, 0.0, 768.0)"></image></g></g><g opacity="0.30"><g><clipPath id="clip0x6180012be0c0"><path d="M 627.0 82.0 L 631.0 82.0 L 631.0 214.0 L 627.0 214.0 Z M 627.0 82.0 "></path></clipPath><g clip-path="url(#clip0x6180012be0c0)"><path d="M -0.3 0.0 L 129.4 0.0 L 129.4 0.0 L -0.3 0.0 Z M 0.0 0.0 " fill="none" stroke="#434343" stroke-width="1.00" transform="matrix(0.00, 1.00, 1.00, 0.00, 629.5, 83.3)"></path></g></g></g><g opacity="0.30"><g><clipPath id="clip0x618000ebe1e0"><path d="M 39.0 47.0 L 986.0 47.0 L 986.0 51.0 L 39.0 51.0 Z M 39.0 47.0 "></path></clipPath><g clip-path="url(#clip0x618000ebe1e0)"><path d="M 0.0 0.5 L 944.8 0.5 L 944.8 0.5 L 0.0 0.5 Z M 0.0 0.0 " fill="none" stroke="#434343" stroke-width="1.00" transform="matrix(1.00, 0.00, 0.00, -1.00, 40.0, 49.0)"></path></g></g></g><g opacity="0.30"><g><clipPath id="clip0x6180012bdb20"><path d="M 39.0 244.0 L 986.0 244.0 L 986.0 248.0 L 39.0 248.0 Z M 39.0 244.0 "></path></clipPath><g clip-path="url(#clip0x6180012bdb20)"><path d="M 0.0 0.5 L 944.9 0.5 L 944.9 0.5 L 0.0 0.5 Z M 0.0 0.0 " fill="none" stroke="#434343" stroke-width="1.00" transform="matrix(1.00, 0.00, 0.00, -1.00, 40.0, 246.0)"></path></g></g></g><g opacity="0.30"><g><clipPath id="clip0x6180012b4e20"><path d="M 627.0 82.0 L 631.0 82.0 L 631.0 214.0 L 627.0 214.0 Z M 627.0 82.0 "></path></clipPath><g clip-path="url(#clip0x6180012b4e20)"><path d="M -0.3 0.0 L 129.4 0.0 L 129.4 0.0 L -0.3 0.0 Z M 0.0 0.0 " fill="none" stroke="#434343" stroke-width="1.00" transform="matrix(0.00, 1.00, 1.00, 0.00, 629.5, 83.3)"></path></g></g></g><text xml:space="preserve" font-family="Palatino-Italic,Palatino" font-style="italic" font-size="24.0" fill="#404040" transform="matrix(1.00, 0.00, -0.00, -1.00, 44.0, 258.7)">C</text><text xml:space="preserve" font-family="Palatino-Italic,Palatino" font-style="italic" font-size="24.0" fill="#404040" transform="matrix(1.00, 0.00, -0.00, -1.00, 60.0, 258.7)">M</text><text xml:space="preserve" font-family="Palatino-Italic,Palatino" font-style="italic" font-size="24.0" fill="#404040" transform="matrix(1.00, 0.00, -0.00, -1.00, 82.7, 258.7)">P</text><text xml:space="preserve" font-family="Palatino-Italic,Palatino" font-style="italic" font-size="24.0" fill="#404040" transform="matrix(1.00, 0.00, -0.00, -1.00, 97.3, 258.7)">E</text><text xml:space="preserve" font-family="Palatino-Italic,Palatino" font-style="italic" font-size="24.0" fill="#404040" transform="matrix(1.00, 0.00, -0.00, -1.00, 112.0, 258.7)"> </text><text xml:space="preserve" font-family="Palatino-Italic,Palatino" font-style="italic" font-size="24.0" fill="#404040" transform="matrix(1.00, 0.00, -0.00, -1.00, 118.0, 258.7)">2</text><text xml:space="preserve" font-family="Palatino-Italic,Palatino" font-style="italic" font-size="24.0" fill="#404040" transform="matrix(1.00, 0.00, -0.00, -1.00, 130.0, 258.7)">9</text><text xml:space="preserve" font-family="Palatino-Italic,Palatino" font-style="italic" font-size="24.0" fill="#404040" transform="matrix(1.00, 0.00, -0.00, -1.00, 142.0, 258.7)">5</text><text xml:space="preserve" font-family="Palatino-Italic,Palatino" font-style="italic" font-size="24.0" fill="#404040" transform="matrix(1.00, 0.00, -0.00, -1.00, 154.0, 258.7)"> </text><text xml:space="preserve" font-family="Palatino-Italic,Palatino" font-style="italic" font-size="24.0" fill="#404040" transform="matrix(1.00, 0.00, -0.00, -1.00, 160.0, 258.7)">B</text><text xml:space="preserve" font-family="Palatino-Italic,Palatino" font-style="italic" font-size="24.0" fill="#404040" transform="matrix(1.00, 0.00, -0.00, -1.00, 174.6, 258.7)"> </text><text xml:space="preserve" font-family="Palatino-Italic,Palatino" font-style="italic" font-size="24.0" fill="#404040" transform="matrix(1.00, 0.00, -0.00, -1.00, 180.6, 258.7)">-</text><text xml:space="preserve" font-family="Palatino-Italic,Palatino" font-style="italic" font-size="24.0" fill="#404040" transform="matrix(1.00, 0.00, -0.00, -1.00, 188.6, 258.7)"> </text><text xml:space="preserve" font-family="Palatino-Italic,Palatino" font-style="italic" font-size="24.0" fill="#404040" transform="matrix(1.00, 0.00, -0.00, -1.00, 194.6, 258.7)">S</text><text xml:space="preserve" font-family="Palatino-Italic,Palatino" font-style="italic" font-size="24.0" fill="#404040" transform="matrix(1.00, 0.00, -0.00, -1.00, 208.0, 258.7)">p</text><text xml:space="preserve" font-family="Palatino-Italic,Palatino" font-style="italic" font-size="24.0" fill="#404040" transform="matrix(1.00, 0.00, -0.00, -1.00, 220.0, 258.7)">r</text><text xml:space="preserve" font-family="Palatino-Italic,Palatino" font-style="italic" font-size="24.0" fill="#404040" transform="matrix(1.00, 0.00, -0.00, -1.00, 229.3, 258.7)">i</text><text xml:space="preserve" font-family="Palatino-Italic,Palatino" font-style="italic" font-size="24.0" fill="#404040" transform="matrix(1.00, 0.00, -0.00, -1.00, 236.0, 258.7)">n</text><text xml:space="preserve" font-family="Palatino-Italic,Palatino" font-style="italic" font-size="24.0" fill="#404040" transform="matrix(1.00, 0.00, -0.00, -1.00, 249.3, 258.7)">g</text><text xml:space="preserve" font-family="Palatino-Italic,Palatino" font-style="italic" font-size="24.0" fill="#404040" transform="matrix(1.00, 0.00, -0.00, -1.00, 261.3, 258.7)"> </text><text xml:space="preserve" font-family="Palatino-Italic,Palatino" font-style="italic" font-size="24.0" fill="#404040" transform="matrix(1.00, 0.00, -0.00, -1.00, 267.3, 258.7)">2</text><text xml:space="preserve" font-family="Palatino-Italic,Palatino" font-style="italic" font-size="24.0" fill="#404040" transform="matrix(1.00, 0.00, -0.00, -1.00, 279.3, 258.7)">0</text><text xml:space="preserve" font-family="Palatino-Italic,Palatino" font-style="italic" font-size="24.0" fill="#404040" transform="matrix(1.00, 0.00, -0.00, -1.00, 291.3, 258.7)">1</text><text xml:space="preserve" font-family="Palatino-Italic,Palatino" font-style="italic" font-size="24.0" fill="#404040" transform="matrix(1.00, 0.00, -0.00, -1.00, 303.3, 258.7)">5</text><g><clipPath id="clip0x6180010b3fe0"><path d="M 977.0 718.0 L 47.0 718.0 L 47.0 308.0 L 977.0 308.0 Z M 977.0 718.1 "></path></clipPath><g clip-path="url(#clip0x6180010b3fe0)"><image xlink:href="EE22A9CD415E2B3DC91D49F0670D2291.jpeg" width="1920.00" height="1200.00" transform="matrix(-0.48, 0.00, 0.00, -0.48, 977.0, 803.7)"></image></g></g><image xlink:href="AC02F2B6CA0A9D0CE71A4235616935FA.png" width="950.00" height="436.00" transform="matrix(-1.00, 0.00, 0.00, 1.00, 987.0, 289.1)"></image><text xml:space="preserve" font-family="BodoniSvtyTwoITCTT-Book,Bodoni SvtyTwo ITC TT" font-size="70.0" fill="#D93D2A" transform="matrix(1.00, 0.00, -0.00, -1.00, 44.0, 144.6)">L</text><text xml:space="preserve" font-family="BodoniSvtyTwoITCTT-Book,Bodoni SvtyTwo ITC TT" font-size="70.0" fill="#D93D2A" transform="matrix(1.00, 0.00, -0.00, -1.00, 83.5, 144.6)">i</text><text xml:space="preserve" font-family="BodoniSvtyTwoITCTT-Book,Bodoni SvtyTwo ITC TT" font-size="70.0" fill="#D93D2A" transform="matrix(1.00, 0.00, -0.00, -1.00, 101.0, 144.6)">e</text><text xml:space="preserve" font-family="BodoniSvtyTwoITCTT-Book,Bodoni SvtyTwo ITC TT" font-size="70.0" fill="#D93D2A" transform="matrix(1.00, 0.00, -0.00, -1.00, 131.1, 144.6)">f</text><text xml:space="preserve" font-family="BodoniSvtyTwoITCTT-Book,Bodoni SvtyTwo ITC TT" font-size="70.0" fill="#D93D2A" transform="matrix(1.00, 0.00, -0.00, -1.00, 149.6, 144.6)">e</text><text xml:space="preserve" font-family="BodoniSvtyTwoITCTT-Book,Bodoni SvtyTwo ITC TT" font-size="70.0" fill="#D93D2A" transform="matrix(1.00, 0.00, -0.00, -1.00, 179.7, 144.6)">r</text><text xml:space="preserve" font-family="BodoniSvtyTwoITCTT-Book,Bodoni SvtyTwo ITC TT" font-size="70.0" fill="#D93D2A" transform="matrix(1.00, 0.00, -0.00, -1.00, 203.4, 144.6)">n</text><text xml:space="preserve" font-family="BodoniSvtyTwoITCTT-Book,Bodoni SvtyTwo ITC TT" font-size="70.0" fill="#D93D2A" transform="matrix(1.00, 0.00, -0.00, -1.00, 237.6, 144.6)"> </text><text xml:space="preserve" font-family="BodoniSvtyTwoITCTT-Book,Bodoni SvtyTwo ITC TT" font-size="30.0" fill="#D93D2A" transform="matrix(1.00, 0.00, -0.00, -1.00, 44.0, 90.5)">(</text><text xml:space="preserve" font-family="BodoniSvtyTwoITCTT-Book,Bodoni SvtyTwo ITC TT" font-size="30.0" fill="#D93D2A" transform="matrix(1.00, 0.00, -0.00, -1.00, 53.1, 90.5)">C</text><text xml:space="preserve" font-family="BodoniSvtyTwoITCTT-Book,Bodoni SvtyTwo ITC TT" font-size="30.0" fill="#D93D2A" transform="matrix(1.00, 0.00, -0.00, -1.00, 72.7, 90.5)">r</text><text xml:space="preserve" font-family="BodoniSvtyTwoITCTT-Book,Bodoni SvtyTwo ITC TT" font-size="30.0" fill="#D93D2A" transform="matrix(1.00, 0.00, -0.00, -1.00, 82.9, 90.5)">o</text><text xml:space="preserve" font-family="BodoniSvtyTwoITCTT-Book,Bodoni SvtyTwo ITC TT" font-size="30.0" fill="#D93D2A" transform="matrix(1.00, 0.00, -0.00, -1.00, 97.3, 90.5)">w</text><text xml:space="preserve" font-family="BodoniSvtyTwoITCTT-Book,Bodoni SvtyTwo ITC TT" font-size="30.0" fill="#D93D2A" transform="matrix(1.00, 0.00, -0.00, -1.00, 115.2, 90.5)">d</text><text xml:space="preserve" font-family="BodoniSvtyTwoITCTT-Book,Bodoni SvtyTwo ITC TT" font-size="30.0" fill="#D93D2A" transform="matrix(1.00, 0.00, -0.00, -1.00, 129.5, 90.5)">-</text><text xml:space="preserve" font-family="BodoniSvtyTwoITCTT-Book,Bodoni SvtyTwo ITC TT" font-size="30.0" fill="#D93D2A" transform="matrix(1.00, 0.00, -0.00, -1.00, 138.7, 90.5)">s</text><text xml:space="preserve" font-family="BodoniSvtyTwoITCTT-Book,Bodoni SvtyTwo ITC TT" font-size="30.0" fill="#D93D2A" transform="matrix(1.00, 0.00, -0.00, -1.00, 149.5, 90.5)">o</text><text xml:space="preserve" font-family="BodoniSvtyTwoITCTT-Book,Bodoni SvtyTwo ITC TT" font-size="30.0" fill="#D93D2A" transform="matrix(1.00, 0.00, -0.00, -1.00, 163.9, 90.5)">u</text><text xml:space="preserve" font-family="BodoniSvtyTwoITCTT-Book,Bodoni SvtyTwo ITC TT" font-size="30.0" fill="#D93D2A" transform="matrix(1.00, 0.00, -0.00, -1.00, 178.6, 90.5)">r</text><text xml:space="preserve" font-family="BodoniSvtyTwoITCTT-Book,Bodoni SvtyTwo ITC TT" font-size="30.0" fill="#D93D2A" transform="matrix(1.00, 0.00, -0.00, -1.00, 188.8, 90.5)">c</text><text xml:space="preserve" font-family="BodoniSvtyTwoITCTT-Book,Bodoni SvtyTwo ITC TT" font-size="30.0" fill="#D93D2A" transform="matrix(1.00, 0.00, -0.00, -1.00, 201.0, 90.5)">e</text><text xml:space="preserve" font-family="BodoniSvtyTwoITCTT-Book,Bodoni SvtyTwo ITC TT" font-size="30.0" fill="#D93D2A" transform="matrix(1.00, 0.00, -0.00, -1.00, 213.9, 90.5)"> </text><text xml:space="preserve" font-family="BodoniSvtyTwoITCTT-Book,Bodoni SvtyTwo ITC TT" font-size="30.0" fill="#D93D2A" transform="matrix(1.00, 0.00, -0.00, -1.00, 219.5, 90.5)">l</text><text xml:space="preserve" font-family="BodoniSvtyTwoITCTT-Book,Bodoni SvtyTwo ITC TT" font-size="30.0" fill="#D93D2A" transform="matrix(1.00, 0.00, -0.00, -1.00, 226.6, 90.5)">o</text><text xml:space="preserve" font-family="BodoniSvtyTwoITCTT-Book,Bodoni SvtyTwo ITC TT" font-size="30.0" fill="#D93D2A" transform="matrix(1.00, 0.00, -0.00, -1.00, 241.0, 90.5)">g</text><text xml:space="preserve" font-family="BodoniSvtyTwoITCTT-Book,Bodoni SvtyTwo ITC TT" font-size="30.0" fill="#D93D2A" transform="matrix(1.00, 0.00, -0.00, -1.00, 255.0, 90.5)">i</text><text xml:space="preserve" font-family="BodoniSvtyTwoITCTT-Book,Bodoni SvtyTwo ITC TT" font-size="30.0" fill="#D93D2A" transform="matrix(1.00, 0.00, -0.00, -1.00, 262.5, 90.5)">s</text><text xml:space="preserve" font-family="BodoniSvtyTwoITCTT-Book,Bodoni SvtyTwo ITC TT" font-size="30.0" fill="#D93D2A" transform="matrix(1.00, 0.00, -0.00, -1.00, 273.4, 90.5)">t</text><text xml:space="preserve" font-family="BodoniSvtyTwoITCTT-Book,Bodoni SvtyTwo ITC TT" font-size="30.0" fill="#D93D2A" transform="matrix(1.00, 0.00, -0.00, -1.00, 281.9, 90.5)">i</text><text xml:space="preserve" font-family="BodoniSvtyTwoITCTT-Book,Bodoni SvtyTwo ITC TT" font-size="30.0" fill="#D93D2A" transform="matrix(1.00, 0.00, -0.00, -1.00, 289.4, 90.5)">c</text><text xml:space="preserve" font-family="BodoniSvtyTwoITCTT-Book,Bodoni SvtyTwo ITC TT" font-size="30.0" fill="#D93D2A" transform="matrix(1.00, 0.00, -0.00, -1.00, 301.7, 90.5)"> </text><text xml:space="preserve" font-family="BodoniSvtyTwoITCTT-Book,Bodoni SvtyTwo ITC TT" font-size="30.0" fill="#D93D2A" transform="matrix(1.00, 0.00, -0.00, -1.00, 307.3, 90.5)">s</text><text xml:space="preserve" font-family="BodoniSvtyTwoITCTT-Book,Bodoni SvtyTwo ITC TT" font-size="30.0" fill="#D93D2A" transform="matrix(1.00, 0.00, -0.00, -1.00, 318.1, 90.5)">o</text><text xml:space="preserve" font-family="BodoniSvtyTwoITCTT-Book,Bodoni SvtyTwo ITC TT" font-size="30.0" fill="#D93D2A" transform="matrix(1.00, 0.00, -0.00, -1.00, 332.5, 90.5)">l</text><text xml:space="preserve" font-family="BodoniSvtyTwoITCTT-Book,Bodoni SvtyTwo ITC TT" font-size="30.0" fill="#D93D2A" transform="matrix(1.00, 0.00, -0.00, -1.00, 339.6, 90.5)">u</text><text xml:space="preserve" font-family="BodoniSvtyTwoITCTT-Book,Bodoni SvtyTwo ITC TT" font-size="30.0" fill="#D93D2A" transform="matrix(1.00, 0.00, -0.00, -1.00, 354.3, 90.5)">t</text><text xml:space="preserve" font-family="BodoniSvtyTwoITCTT-Book,Bodoni SvtyTwo ITC TT" font-size="30.0" fill="#D93D2A" transform="matrix(1.00, 0.00, -0.00, -1.00, 362.8, 90.5)">i</text><text xml:space="preserve" font-family="BodoniSvtyTwoITCTT-Book,Bodoni SvtyTwo ITC TT" font-size="30.0" fill="#D93D2A" transform="matrix(1.00, 0.00, -0.00, -1.00, 370.3, 90.5)">o</text><text xml:space="preserve" font-family="BodoniSvtyTwoITCTT-Book,Bodoni SvtyTwo ITC TT" font-size="30.0" fill="#D93D2A" transform="matrix(1.00, 0.00, -0.00, -1.00, 384.7, 90.5)">n</text><text xml:space="preserve" font-family="BodoniSvtyTwoITCTT-Book,Bodoni SvtyTwo ITC TT" font-size="30.0" fill="#D93D2A" transform="matrix(1.00, 0.00, -0.00, -1.00, 399.4, 90.5)">)</text><text xml:space="preserve" font-family="Palatino-Roman,Palatino" font-size="23.3" fill="#000000" transform="matrix(1.00, 0.00, -0.00, -1.00, 656.0, 213.5)">A</text><text xml:space="preserve" font-family="Palatino-Roman,Palatino" font-size="23.3" fill="#000000" transform="matrix(1.00, 0.00, -0.00, -1.00, 674.1, 213.5)">u</text><text xml:space="preserve" font-family="Palatino-Roman,Palatino" font-size="23.3" fill="#000000" transform="matrix(1.00, 0.00, -0.00, -1.00, 688.1, 213.5)">t</text><text xml:space="preserve" font-family="Palatino-Roman,Palatino" font-size="23.3" fill="#000000" transform="matrix(1.00, 0.00, -0.00, -1.00, 695.7, 213.5)">h</text><text xml:space="preserve" font-family="Palatino-Roman,Palatino" font-size="23.3" fill="#000000" transform="matrix(1.00, 0.00, -0.00, -1.00, 709.3, 213.5)">o</text><text xml:space="preserve" font-family="Palatino-Roman,Palatino" font-size="23.3" fill="#000000" transform="matrix(1.00, 0.00, -0.00, -1.00, 722.0, 213.5)">r</text><text xml:space="preserve" font-family="Palatino-Roman,Palatino" font-size="23.3" fill="#000000" transform="matrix(1.00, 0.00, -0.00, -1.00, 731.2, 213.5)">s</text><text xml:space="preserve" font-family="Palatino-Roman,Palatino" font-size="23.3" fill="#000000" transform="matrix(1.00, 0.00, -0.00, -1.00, 741.1, 213.5)">:</text><text xml:space="preserve" font-family="Palatino-Roman,Palatino" font-size="23.3" fill="#000000" transform="matrix(1.00, 0.00, -0.00, -1.00, 746.9, 213.5)"> </text><text xml:space="preserve" font-family="Palatino-Italic,Palatino" font-style="italic" font-size="23.3" fill="#000000" transform="matrix(1.00, 0.00, -0.00, -1.00, 692.0, 183.5)">A</text><text xml:space="preserve" font-family="Palatino-Italic,Palatino" font-style="italic" font-size="23.3" fill="#000000" transform="matrix(1.00, 0.00, -0.00, -1.00, 708.8, 183.5)">r</text><text xml:space="preserve" font-family="Palatino-Italic,Palatino" font-style="italic" font-size="23.3" fill="#000000" transform="matrix(1.00, 0.00, -0.00, -1.00, 717.9, 183.5)">u</text><text xml:space="preserve" font-family="Palatino-Italic,Palatino" font-style="italic" font-size="23.3" fill="#000000" transform="matrix(1.00, 0.00, -0.00, -1.00, 730.8, 183.5)">n</text><text xml:space="preserve" font-family="Palatino-Italic,Palatino" font-style="italic" font-size="23.3" fill="#000000" transform="matrix(1.00, 0.00, -0.00, -1.00, 743.8, 183.5)"> </text><text xml:space="preserve" font-family="Palatino-Italic,Palatino" font-style="italic" font-size="23.3" fill="#000000" transform="matrix(1.00, 0.00, -0.00, -1.00, 749.6, 183.5)">M</text><text xml:space="preserve" font-family="Palatino-Italic,Palatino" font-style="italic" font-size="23.3" fill="#000000" transform="matrix(1.00, 0.00, -0.00, -1.00, 771.6, 183.5)">a</text><text xml:space="preserve" font-family="Palatino-Italic,Palatino" font-style="italic" font-size="23.3" fill="#000000" transform="matrix(1.00, 0.00, -0.00, -1.00, 781.9, 183.5)">l</text><text xml:space="preserve" font-family="Palatino-Italic,Palatino" font-style="italic" font-size="23.3" fill="#000000" transform="matrix(1.00, 0.00, -0.00, -1.00, 788.4, 183.5)">i</text><text xml:space="preserve" font-family="Palatino-Italic,Palatino" font-style="italic" font-size="23.3" fill="#000000" transform="matrix(1.00, 0.00, -0.00, -1.00, 794.8, 183.5)">k</text><text xml:space="preserve" font-family="Palatino-Italic,Palatino" font-style="italic" font-size="23.3" fill="#000000" transform="matrix(1.00, 0.00, -0.00, -1.00, 692.0, 153.5)">P</text><text xml:space="preserve" font-family="Palatino-Italic,Palatino" font-style="italic" font-size="23.3" fill="#000000" transform="matrix(1.00, 0.00, -0.00, -1.00, 706.2, 153.5)">r</text><text xml:space="preserve" font-family="Palatino-Italic,Palatino" font-style="italic" font-size="23.3" fill="#000000" transform="matrix(1.00, 0.00, -0.00, -1.00, 715.3, 153.5)">a</text><text xml:space="preserve" font-family="Palatino-Italic,Palatino" font-style="italic" font-size="23.3" fill="#000000" transform="matrix(1.00, 0.00, -0.00, -1.00, 725.6, 153.5)">v</text><text xml:space="preserve" font-family="Palatino-Italic,Palatino" font-style="italic" font-size="23.3" fill="#000000" transform="matrix(1.00, 0.00, -0.00, -1.00, 737.2, 153.5)">i</text><text xml:space="preserve" font-family="Palatino-Italic,Palatino" font-style="italic" font-size="23.3" fill="#000000" transform="matrix(1.00, 0.00, -0.00, -1.00, 743.7, 153.5)">n</text><text xml:space="preserve" font-family="Palatino-Italic,Palatino" font-style="italic" font-size="23.3" fill="#000000" transform="matrix(1.00, 0.00, -0.00, -1.00, 756.7, 153.5)"> </text><text xml:space="preserve" font-family="Palatino-Italic,Palatino" font-style="italic" font-size="23.3" fill="#000000" transform="matrix(1.00, 0.00, -0.00, -1.00, 762.5, 153.5)">A</text><text xml:space="preserve" font-family="Palatino-Italic,Palatino" font-style="italic" font-size="23.3" fill="#000000" transform="matrix(1.00, 0.00, -0.00, -1.00, 779.3, 153.5)">g</text><text xml:space="preserve" font-family="Palatino-Italic,Palatino" font-style="italic" font-size="23.3" fill="#000000" transform="matrix(1.00, 0.00, -0.00, -1.00, 790.9, 153.5)">r</text><text xml:space="preserve" font-family="Palatino-Italic,Palatino" font-style="italic" font-size="23.3" fill="#000000" transform="matrix(1.00, 0.00, -0.00, -1.00, 800.0, 153.5)">a</text><text xml:space="preserve" font-family="Palatino-Italic,Palatino" font-style="italic" font-size="23.3" fill="#000000" transform="matrix(1.00, 0.00, -0.00, -1.00, 810.3, 153.5)">w</text><text xml:space="preserve" font-family="Palatino-Italic,Palatino" font-style="italic" font-size="23.3" fill="#000000" transform="matrix(1.00, 0.00, -0.00, -1.00, 827.1, 153.5)">a</text><text xml:space="preserve" font-family="Palatino-Italic,Palatino" font-style="italic" font-size="23.3" fill="#000000" transform="matrix(1.00, 0.00, -0.00, -1.00, 837.5, 153.5)">l</text><text xml:space="preserve" font-family="Palatino-Italic,Palatino" font-style="italic" font-size="23.3" fill="#000000" transform="matrix(1.00, 0.00, -0.00, -1.00, 692.0, 123.5)">R</text><text xml:space="preserve" font-family="Palatino-Italic,Palatino" font-style="italic" font-size="23.3" fill="#000000" transform="matrix(1.00, 0.00, -0.00, -1.00, 707.5, 123.5)">a</text><text xml:space="preserve" font-family="Palatino-Italic,Palatino" font-style="italic" font-size="23.3" fill="#000000" transform="matrix(1.00, 0.00, -0.00, -1.00, 717.9, 123.5)">m</text><text xml:space="preserve" font-family="Palatino-Italic,Palatino" font-style="italic" font-size="23.3" fill="#000000" transform="matrix(1.00, 0.00, -0.00, -1.00, 736.0, 123.5)"> </text><text xml:space="preserve" font-family="Palatino-Italic,Palatino" font-style="italic" font-size="23.3" fill="#000000" transform="matrix(1.00, 0.00, -0.00, -1.00, 741.8, 123.5)">C</text><text xml:space="preserve" font-family="Palatino-Italic,Palatino" font-style="italic" font-size="23.3" fill="#000000" transform="matrix(1.00, 0.00, -0.00, -1.00, 757.3, 123.5)">h</text><text xml:space="preserve" font-family="Palatino-Italic,Palatino" font-style="italic" font-size="23.3" fill="#000000" transform="matrix(1.00, 0.00, -0.00, -1.00, 768.9, 123.5)">a</text><text xml:space="preserve" font-family="Palatino-Italic,Palatino" font-style="italic" font-size="23.3" fill="#000000" transform="matrix(1.00, 0.00, -0.00, -1.00, 779.3, 123.5)">r</text><text xml:space="preserve" font-family="Palatino-Italic,Palatino" font-style="italic" font-size="23.3" fill="#000000" transform="matrix(1.00, 0.00, -0.00, -1.00, 788.3, 123.5)">a</text><text xml:space="preserve" font-family="Palatino-Italic,Palatino" font-style="italic" font-size="23.3" fill="#000000" transform="matrix(1.00, 0.00, -0.00, -1.00, 798.7, 123.5)">n</text><text xml:space="preserve" font-family="Palatino-Italic,Palatino" font-style="italic" font-size="23.3" fill="#000000" transform="matrix(1.00, 0.00, -0.00, -1.00, 811.6, 123.5)"> </text><text xml:space="preserve" font-family="Palatino-Italic,Palatino" font-style="italic" font-size="23.3" fill="#000000" transform="matrix(1.00, 0.00, -0.00, -1.00, 817.4, 123.5)">K</text><text xml:space="preserve" font-family="Palatino-Italic,Palatino" font-style="italic" font-size="23.3" fill="#000000" transform="matrix(1.00, 0.00, -0.00, -1.00, 833.0, 123.5)">a</text><text xml:space="preserve" font-family="Palatino-Italic,Palatino" font-style="italic" font-size="23.3" fill="#000000" transform="matrix(1.00, 0.00, -0.00, -1.00, 843.3, 123.5)">r</text><text xml:space="preserve" font-family="Palatino-Italic,Palatino" font-style="italic" font-size="23.3" fill="#000000" transform="matrix(1.00, 0.00, -0.00, -1.00, 852.4, 123.5)">n</text><text xml:space="preserve" font-family="Palatino-Italic,Palatino" font-style="italic" font-size="23.3" fill="#000000" transform="matrix(1.00, 0.00, -0.00, -1.00, 865.3, 123.5)">a</text><text xml:space="preserve" font-family="Palatino-Italic,Palatino" font-style="italic" font-size="23.3" fill="#000000" transform="matrix(1.00, 0.00, -0.00, -1.00, 875.6, 123.5)">t</text><text xml:space="preserve" font-family="Palatino-Italic,Palatino" font-style="italic" font-size="23.3" fill="#000000" transform="matrix(1.00, 0.00, -0.00, -1.00, 883.4, 123.5)">i</text><text xml:space="preserve" font-family="Palatino-Italic,Palatino" font-style="italic" font-size="23.3" fill="#000000" transform="matrix(1.00, 0.00, -0.00, -1.00, 692.0, 93.5)">S</text><text xml:space="preserve" font-family="Palatino-Italic,Palatino" font-style="italic" font-size="23.3" fill="#000000" transform="matrix(1.00, 0.00, -0.00, -1.00, 705.0, 93.5)">h</text><text xml:space="preserve" font-family="Palatino-Italic,Palatino" font-style="italic" font-size="23.3" fill="#000000" transform="matrix(1.00, 0.00, -0.00, -1.00, 716.6, 93.5)">i</text><text xml:space="preserve" font-family="Palatino-Italic,Palatino" font-style="italic" font-size="23.3" fill="#000000" transform="matrix(1.00, 0.00, -0.00, -1.00, 723.1, 93.5)">v</text><text xml:space="preserve" font-family="Palatino-Italic,Palatino" font-style="italic" font-size="23.3" fill="#000000" transform="matrix(1.00, 0.00, -0.00, -1.00, 734.7, 93.5)">a</text><text xml:space="preserve" font-family="Palatino-Italic,Palatino" font-style="italic" font-size="23.3" fill="#000000" transform="matrix(1.00, 0.00, -0.00, -1.00, 745.0, 93.5)">r</text><text xml:space="preserve" font-family="Palatino-Italic,Palatino" font-style="italic" font-size="23.3" fill="#000000" transform="matrix(1.00, 0.00, -0.00, -1.00, 754.1, 93.5)">a</text><text xml:space="preserve" font-family="Palatino-Italic,Palatino" font-style="italic" font-size="23.3" fill="#000000" transform="matrix(1.00, 0.00, -0.00, -1.00, 764.4, 93.5)">j</text><text xml:space="preserve" font-family="Palatino-Italic,Palatino" font-style="italic" font-size="23.3" fill="#000000" transform="matrix(1.00, 0.00, -0.00, -1.00, 770.9, 93.5)"> </text><text xml:space="preserve" font-family="Palatino-Italic,Palatino" font-style="italic" font-size="23.3" fill="#000000" transform="matrix(1.00, 0.00, -0.00, -1.00, 776.7, 93.5)">P</text><text xml:space="preserve" font-family="Palatino-Italic,Palatino" font-style="italic" font-size="23.3" fill="#000000" transform="matrix(1.00, 0.00, -0.00, -1.00, 790.9, 93.5)">a</text><text xml:space="preserve" font-family="Palatino-Italic,Palatino" font-style="italic" font-size="23.3" fill="#000000" transform="matrix(1.00, 0.00, -0.00, -1.00, 801.2, 93.5)">t</text><text xml:space="preserve" font-family="Palatino-Italic,Palatino" font-style="italic" font-size="23.3" fill="#000000" transform="matrix(1.00, 0.00, -0.00, -1.00, 809.0, 93.5)">i</text><text xml:space="preserve" font-family="Palatino-Italic,Palatino" font-style="italic" font-size="23.3" fill="#000000" transform="matrix(1.00, 0.00, -0.00, -1.00, 815.5, 93.5)">l</text><text xml:space="preserve" font-family="Palatino-Italic,Palatino" font-style="italic" font-size="24.0" fill="#404040" transform="matrix(1.00, 0.00, -0.00, -1.00, 663.7, 260.7)">A</text><text xml:space="preserve" font-family="Palatino-Italic,Palatino" font-style="italic" font-size="24.0" fill="#404040" transform="matrix(1.00, 0.00, -0.00, -1.00, 681.0, 260.7)">d</text><text xml:space="preserve" font-family="Palatino-Italic,Palatino" font-style="italic" font-size="24.0" fill="#404040" transform="matrix(1.00, 0.00, -0.00, -1.00, 693.0, 260.7)">v</text><text xml:space="preserve" font-family="Palatino-Italic,Palatino" font-style="italic" font-size="24.0" fill="#404040" transform="matrix(1.00, 0.00, -0.00, -1.00, 705.0, 260.7)">i</text><text xml:space="preserve" font-family="Palatino-Italic,Palatino" font-style="italic" font-size="24.0" fill="#404040" transform="matrix(1.00, 0.00, -0.00, -1.00, 711.7, 260.7)">s</text><text xml:space="preserve" font-family="Palatino-Italic,Palatino" font-style="italic" font-size="24.0" fill="#404040" transform="matrix(1.00, 0.00, -0.00, -1.00, 721.0, 260.7)">o</text><text xml:space="preserve" font-family="Palatino-Italic,Palatino" font-style="italic" font-size="24.0" fill="#404040" transform="matrix(1.00, 0.00, -0.00, -1.00, 731.7, 260.7)">r</text><text xml:space="preserve" font-family="Palatino-Italic,Palatino" font-style="italic" font-size="24.0" fill="#404040" transform="matrix(1.00, 0.00, -0.00, -1.00, 741.0, 260.7)"> </text><text xml:space="preserve" font-family="Palatino-Italic,Palatino" font-style="italic" font-size="24.0" fill="#404040" transform="matrix(1.00, 0.00, -0.00, -1.00, 747.0, 260.7)">-</text><text xml:space="preserve" font-family="Palatino-Italic,Palatino" font-style="italic" font-size="24.0" fill="#404040" transform="matrix(1.00, 0.00, -0.00, -1.00, 755.0, 260.7)"> </text><text xml:space="preserve" font-family="Palatino-Italic,Palatino" font-style="italic" font-size="24.0" fill="#404040" transform="matrix(1.00, 0.00, -0.00, -1.00, 761.0, 260.7)">P</text><text xml:space="preserve" font-family="Palatino-Italic,Palatino" font-style="italic" font-size="24.0" fill="#404040" transform="matrix(1.00, 0.00, -0.00, -1.00, 775.7, 260.7)">r</text><text xml:space="preserve" font-family="Palatino-Italic,Palatino" font-style="italic" font-size="24.0" fill="#404040" transform="matrix(1.00, 0.00, -0.00, -1.00, 784.6, 260.7)">o</text><text xml:space="preserve" font-family="Palatino-Italic,Palatino" font-style="italic" font-size="24.0" fill="#404040" transform="matrix(1.00, 0.00, -0.00, -1.00, 795.3, 260.7)">f</text><text xml:space="preserve" font-family="Palatino-Italic,Palatino" font-style="italic" font-size="24.0" fill="#404040" transform="matrix(1.00, 0.00, -0.00, -1.00, 801.9, 260.7)">.</text><text xml:space="preserve" font-family="Palatino-Italic,Palatino" font-style="italic" font-size="24.0" fill="#404040" transform="matrix(1.00, 0.00, -0.00, -1.00, 807.9, 260.7)"> </text><text xml:space="preserve" font-family="Palatino-Italic,Palatino" font-style="italic" font-size="24.0" fill="#404040" transform="matrix(1.00, 0.00, -0.00, -1.00, 813.9, 260.7)">A</text><text xml:space="preserve" font-family="Palatino-Italic,Palatino" font-style="italic" font-size="24.0" fill="#404040" transform="matrix(1.00, 0.00, -0.00, -1.00, 831.3, 260.7)">s</text><text xml:space="preserve" font-family="Palatino-Italic,Palatino" font-style="italic" font-size="24.0" fill="#404040" transform="matrix(1.00, 0.00, -0.00, -1.00, 840.6, 260.7)">h</text><text xml:space="preserve" font-family="Palatino-Italic,Palatino" font-style="italic" font-size="24.0" fill="#404040" transform="matrix(1.00, 0.00, -0.00, -1.00, 852.6, 260.7)">o</text><text xml:space="preserve" font-family="Palatino-Italic,Palatino" font-style="italic" font-size="24.0" fill="#404040" transform="matrix(1.00, 0.00, -0.00, -1.00, 863.2, 260.7)">k</text><text xml:space="preserve" font-family="Palatino-Italic,Palatino" font-style="italic" font-size="24.0" fill="#404040" transform="matrix(1.00, 0.00, -0.00, -1.00, 873.9, 260.7)"> </text><text xml:space="preserve" font-family="Palatino-Italic,Palatino" font-style="italic" font-size="24.0" fill="#404040" transform="matrix(1.00, 0.00, -0.00, -1.00, 879.9, 260.7)">B</text><text xml:space="preserve" font-family="Palatino-Italic,Palatino" font-style="italic" font-size="24.0" fill="#404040" transform="matrix(1.00, 0.00, -0.00, -1.00, 894.5, 260.7)">a</text><text xml:space="preserve" font-family="Palatino-Italic,Palatino" font-style="italic" font-size="24.0" fill="#404040" transform="matrix(1.00, 0.00, -0.00, -1.00, 905.2, 260.7)">n</text><text xml:space="preserve" font-family="Palatino-Italic,Palatino" font-style="italic" font-size="24.0" fill="#404040" transform="matrix(1.00, 0.00, -0.00, -1.00, 918.5, 260.7)">e</text><text xml:space="preserve" font-family="Palatino-Italic,Palatino" font-style="italic" font-size="24.0" fill="#404040" transform="matrix(1.00, 0.00, -0.00, -1.00, 927.9, 260.7)">r</text><text xml:space="preserve" font-family="Palatino-Italic,Palatino" font-style="italic" font-size="24.0" fill="#404040" transform="matrix(1.00, 0.00, -0.00, -1.00, 937.2, 260.7)">j</text><text xml:space="preserve" font-family="Palatino-Italic,Palatino" font-style="italic" font-size="24.0" fill="#404040" transform="matrix(1.00, 0.00, -0.00, -1.00, 943.9, 260.7)">e</text><text xml:space="preserve" font-family="Palatino-Italic,Palatino" font-style="italic" font-size="24.0" fill="#404040" transform="matrix(1.00, 0.00, -0.00, -1.00, 953.2, 260.7)">e</text></g></svg>