<?xml version="1.0" encoding="UTF-8" standalone="no"?><svg xmlns="http://www.w3.org/2000/svg" xmlns:xlink="http://www.w3.org/1999/xlink" clip-rule="evenodd" stroke-miterlimit="10" viewBox="0 0 1024 768"><desc>SVG generated by Keynote</desc><defs></defs><g transform="matrix(1.00, 0.00, -0.00, -1.00, 0.0, 768.0)"><g><clipPath id="clip0x6000006a69c0"><path d="M 0.0 768.0 L 1024.0 768.0 L 1024.0 0.0 L 0.0 0.0 Z M 0.0 768.0 "></path></clipPath><g clip-path="url(#clip0x6000006a69c0)"><image xlink:href="../../D2C527DA-45E4-452D-A204-C7373C32E7B1/assets/5A8C990C4A4597A5304AC9F14CDA7C87.jpeg" width="2048.00" height="1536.00" transform="matrix(0.50, 0.00, -0.00, -0.50, 0.0, 768.0)"></image></g></g><g opacity="0.30"><g><clipPath id="clip0x608000ebc4a0"><path d="M 39.0 595.0 L 986.0 595.0 L 986.0 599.0 L 39.0 599.0 Z M 39.0 595.0 "></path></clipPath><g clip-path="url(#clip0x608000ebc4a0)"><path d="M 0.0 0.5 L 944.7 0.5 L 944.7 0.5 L 0.0 0.5 Z M 0.0 0.0 " fill="none" stroke="#434343" stroke-width="1.00" transform="matrix(1.00, 0.00, 0.00, -1.00, 40.0, 597.0)"></path></g></g></g><g opacity="0.30"><g><clipPath id="clip0x6080010b9da0"><path d="M 39.0 716.0 L 986.0 716.0 L 986.0 720.0 L 39.0 720.0 Z M 39.0 716.0 "></path></clipPath><g clip-path="url(#clip0x6080010b9da0)"><path d="M 0.0 0.5 L 944.7 0.5 L 944.7 0.5 L 0.0 0.5 Z M 0.0 0.0 " fill="none" stroke="#434343" stroke-width="1.00" transform="matrix(1.00, 0.00, 0.00, -1.00, 40.0, 718.0)"></path></g></g></g><text xml:space="preserve" font-family="BodoniSvtyTwoITCTT-Book,Bodoni SvtyTwo ITC TT" font-size="70.0" fill="#D93D2A" transform="matrix(1.00, 0.00, -0.00, -1.00, 397.4, 632.6)">F</text><text xml:space="preserve" font-family="BodoniSvtyTwoITCTT-Book,Bodoni SvtyTwo ITC TT" font-size="70.0" fill="#D93D2A" transform="matrix(1.00, 0.00, -0.00, -1.00, 435.4, 632.6)">e</text><text xml:space="preserve" font-family="BodoniSvtyTwoITCTT-Book,Bodoni SvtyTwo ITC TT" font-size="70.0" fill="#D93D2A" transform="matrix(1.00, 0.00, -0.00, -1.00, 465.5, 632.6)">a</text><text xml:space="preserve" font-family="BodoniSvtyTwoITCTT-Book,Bodoni SvtyTwo ITC TT" font-size="70.0" fill="#D93D2A" transform="matrix(1.00, 0.00, -0.00, -1.00, 493.3, 632.6)">t</text><text xml:space="preserve" font-family="BodoniSvtyTwoITCTT-Book,Bodoni SvtyTwo ITC TT" font-size="70.0" fill="#D93D2A" transform="matrix(1.00, 0.00, -0.00, -1.00, 513.2, 632.6)">u</text><text xml:space="preserve" font-family="BodoniSvtyTwoITCTT-Book,Bodoni SvtyTwo ITC TT" font-size="70.0" fill="#D93D2A" transform="matrix(1.00, 0.00, -0.00, -1.00, 547.5, 632.6)">r</text><text xml:space="preserve" font-family="BodoniSvtyTwoITCTT-Book,Bodoni SvtyTwo ITC TT" font-size="70.0" fill="#D93D2A" transform="matrix(1.00, 0.00, -0.00, -1.00, 571.1, 632.6)">e</text><text xml:space="preserve" font-family="BodoniSvtyTwoITCTT-Book,Bodoni SvtyTwo ITC TT" font-size="70.0" fill="#D93D2A" transform="matrix(1.00, 0.00, -0.00, -1.00, 601.2, 632.6)">s</text><text xml:space="preserve" font-family="ZapfDingbatsITC,Zapf Dingbats" font-size="21.6" fill="#919191" transform="matrix(1.00, 0.00, -0.00, -1.00, 32.0, 560.3)">❖</text><text xml:space="preserve" font-family="Palatino-Bold,Palatino" font-weight="bold" font-size="36.0" fill="#404040" transform="matrix(1.00, 0.00, -0.00, -1.00, 69.0, 554.5)">F</text><text xml:space="preserve" font-family="Palatino-Bold,Palatino" font-weight="bold" font-size="36.0" fill="#404040" transform="matrix(1.00, 0.00, -0.00, -1.00, 89.0, 554.5)">a</text><text xml:space="preserve" font-family="Palatino-Bold,Palatino" font-weight="bold" font-size="36.0" fill="#404040" transform="matrix(1.00, 0.00, -0.00, -1.00, 107.0, 554.5)">s</text><text xml:space="preserve" font-family="Palatino-Bold,Palatino" font-weight="bold" font-size="36.0" fill="#404040" transform="matrix(1.00, 0.00, -0.00, -1.00, 123.0, 554.5)">t</text><text xml:space="preserve" font-family="Palatino-Bold,Palatino" font-weight="bold" font-size="36.0" fill="#404040" transform="matrix(1.00, 0.00, -0.00, -1.00, 135.0, 554.5)">e</text><text xml:space="preserve" font-family="Palatino-Bold,Palatino" font-weight="bold" font-size="36.0" fill="#404040" transform="matrix(1.00, 0.00, -0.00, -1.00, 153.0, 554.5)">r</text><text xml:space="preserve" font-family="Palatino-Bold,Palatino" font-weight="bold" font-size="36.0" fill="#404040" transform="matrix(1.00, 0.00, -0.00, -1.00, 167.0, 554.5)"> </text><text xml:space="preserve" font-family="Palatino-Bold,Palatino" font-weight="bold" font-size="36.0" fill="#404040" transform="matrix(1.00, 0.00, -0.00, -1.00, 176.0, 554.5)">D</text><text xml:space="preserve" font-family="Palatino-Bold,Palatino" font-weight="bold" font-size="36.0" fill="#404040" transform="matrix(1.00, 0.00, -0.00, -1.00, 206.0, 554.5)">e</text><text xml:space="preserve" font-family="Palatino-Bold,Palatino" font-weight="bold" font-size="36.0" fill="#404040" transform="matrix(1.00, 0.00, -0.00, -1.00, 224.0, 554.5)">l</text><text xml:space="preserve" font-family="Palatino-Bold,Palatino" font-weight="bold" font-size="36.0" fill="#404040" transform="matrix(1.00, 0.00, -0.00, -1.00, 236.0, 554.5)">i</text><text xml:space="preserve" font-family="Palatino-Bold,Palatino" font-weight="bold" font-size="36.0" fill="#404040" transform="matrix(1.00, 0.00, -0.00, -1.00, 248.0, 554.5)">v</text><text xml:space="preserve" font-family="Palatino-Bold,Palatino" font-weight="bold" font-size="36.0" fill="#404040" transform="matrix(1.00, 0.00, -0.00, -1.00, 268.0, 554.5)">e</text><text xml:space="preserve" font-family="Palatino-Bold,Palatino" font-weight="bold" font-size="36.0" fill="#404040" transform="matrix(1.00, 0.00, -0.00, -1.00, 286.0, 554.5)">r</text><text xml:space="preserve" font-family="Palatino-Bold,Palatino" font-weight="bold" font-size="36.0" fill="#404040" transform="matrix(1.00, 0.00, -0.00, -1.00, 300.0, 554.5)">y</text><text xml:space="preserve" font-family="Palatino-Roman,Palatino" font-size="22.5" fill="#404040" transform="matrix(1.00, 0.00, -0.00, -1.00, 69.0, 491.7)">•</text><text xml:space="preserve" font-family="Palatino-Roman,Palatino" font-size="30.0" fill="#404040" transform="matrix(1.00, 0.00, -0.00, -1.00, 106.0, 488.8)">D</text><text xml:space="preserve" font-family="Palatino-Roman,Palatino" font-size="30.0" fill="#404040" transform="matrix(1.00, 0.00, -0.00, -1.00, 129.2, 488.8)">o</text><text xml:space="preserve" font-family="Palatino-Roman,Palatino" font-size="30.0" fill="#404040" transform="matrix(1.00, 0.00, -0.00, -1.00, 145.6, 488.8)"> </text><text xml:space="preserve" font-family="Palatino-Roman,Palatino" font-size="30.0" fill="#404040" transform="matrix(1.00, 0.00, -0.00, -1.00, 153.1, 488.8)">n</text><text xml:space="preserve" font-family="Palatino-Roman,Palatino" font-size="30.0" fill="#404040" transform="matrix(1.00, 0.00, -0.00, -1.00, 170.5, 488.8)">o</text><text xml:space="preserve" font-family="Palatino-Roman,Palatino" font-size="30.0" fill="#404040" transform="matrix(1.00, 0.00, -0.00, -1.00, 186.9, 488.8)">t</text><text xml:space="preserve" font-family="Palatino-Roman,Palatino" font-size="30.0" fill="#404040" transform="matrix(1.00, 0.00, -0.00, -1.00, 196.7, 488.8)"> </text><text xml:space="preserve" font-family="Palatino-Roman,Palatino" font-size="30.0" fill="#404040" transform="matrix(1.00, 0.00, -0.00, -1.00, 204.2, 488.8)">w</text><text xml:space="preserve" font-family="Palatino-Roman,Palatino" font-size="30.0" fill="#404040" transform="matrix(1.00, 0.00, -0.00, -1.00, 229.2, 488.8)">a</text><text xml:space="preserve" font-family="Palatino-Roman,Palatino" font-size="30.0" fill="#404040" transform="matrix(1.00, 0.00, -0.00, -1.00, 244.2, 488.8)">i</text><text xml:space="preserve" font-family="Palatino-Roman,Palatino" font-size="30.0" fill="#404040" transform="matrix(1.00, 0.00, -0.00, -1.00, 253.0, 488.8)">t</text><text xml:space="preserve" font-family="Palatino-Roman,Palatino" font-size="30.0" fill="#404040" transform="matrix(1.00, 0.00, -0.00, -1.00, 262.8, 488.8)"> </text><text xml:space="preserve" font-family="Palatino-Roman,Palatino" font-size="30.0" fill="#404040" transform="matrix(1.00, 0.00, -0.00, -1.00, 270.3, 488.8)">f</text><text xml:space="preserve" font-family="Palatino-Roman,Palatino" font-size="30.0" fill="#404040" transform="matrix(1.00, 0.00, -0.00, -1.00, 280.2, 488.8)">o</text><text xml:space="preserve" font-family="Palatino-Roman,Palatino" font-size="30.0" fill="#404040" transform="matrix(1.00, 0.00, -0.00, -1.00, 296.6, 488.8)">r</text><text xml:space="preserve" font-family="Palatino-Roman,Palatino" font-size="30.0" fill="#404040" transform="matrix(1.00, 0.00, -0.00, -1.00, 308.5, 488.8)"> </text><text xml:space="preserve" font-family="Palatino-Roman,Palatino" font-size="30.0" fill="#404040" transform="matrix(1.00, 0.00, -0.00, -1.00, 316.0, 488.8)">2</text><text xml:space="preserve" font-family="Palatino-Roman,Palatino" font-size="30.0" fill="#404040" transform="matrix(1.00, 0.00, -0.00, -1.00, 331.0, 488.8)">-</text><text xml:space="preserve" font-family="Palatino-Roman,Palatino" font-size="30.0" fill="#404040" transform="matrix(1.00, 0.00, -0.00, -1.00, 341.0, 488.8)">3</text><text xml:space="preserve" font-family="Palatino-Roman,Palatino" font-size="30.0" fill="#404040" transform="matrix(1.00, 0.00, -0.00, -1.00, 356.0, 488.8)"> </text><text xml:space="preserve" font-family="Palatino-Roman,Palatino" font-size="30.0" fill="#404040" transform="matrix(1.00, 0.00, -0.00, -1.00, 363.5, 488.8)">d</text><text xml:space="preserve" font-family="Palatino-Roman,Palatino" font-size="30.0" fill="#404040" transform="matrix(1.00, 0.00, -0.00, -1.00, 381.8, 488.8)">a</text><text xml:space="preserve" font-family="Palatino-Roman,Palatino" font-size="30.0" fill="#404040" transform="matrix(1.00, 0.00, -0.00, -1.00, 396.8, 488.8)">y</text><text xml:space="preserve" font-family="Palatino-Roman,Palatino" font-size="30.0" fill="#404040" transform="matrix(1.00, 0.00, -0.00, -1.00, 413.5, 488.8)">s</text><text xml:space="preserve" font-family="Palatino-Roman,Palatino" font-size="30.0" fill="#404040" transform="matrix(1.00, 0.00, -0.00, -1.00, 426.2, 488.8)"> </text><text xml:space="preserve" font-family="Palatino-Roman,Palatino" font-size="30.0" fill="#404040" transform="matrix(1.00, 0.00, -0.00, -1.00, 433.7, 488.8)">d</text><text xml:space="preserve" font-family="Palatino-Roman,Palatino" font-size="30.0" fill="#404040" transform="matrix(1.00, 0.00, -0.00, -1.00, 452.0, 488.8)">e</text><text xml:space="preserve" font-family="Palatino-Roman,Palatino" font-size="30.0" fill="#404040" transform="matrix(1.00, 0.00, -0.00, -1.00, 466.4, 488.8)">l</text><text xml:space="preserve" font-family="Palatino-Roman,Palatino" font-size="30.0" fill="#404040" transform="matrix(1.00, 0.00, -0.00, -1.00, 475.1, 488.8)">i</text><text xml:space="preserve" font-family="Palatino-Roman,Palatino" font-size="30.0" fill="#404040" transform="matrix(1.00, 0.00, -0.00, -1.00, 483.8, 488.8)">v</text><text xml:space="preserve" font-family="Palatino-Roman,Palatino" font-size="30.0" fill="#404040" transform="matrix(1.00, 0.00, -0.00, -1.00, 500.8, 488.8)">e</text><text xml:space="preserve" font-family="Palatino-Roman,Palatino" font-size="30.0" fill="#404040" transform="matrix(1.00, 0.00, -0.00, -1.00, 515.1, 488.8)">r</text><text xml:space="preserve" font-family="Palatino-Roman,Palatino" font-size="30.0" fill="#404040" transform="matrix(1.00, 0.00, -0.00, -1.00, 527.0, 488.8)">y</text><text xml:space="preserve" font-family="Palatino-Roman,Palatino" font-size="30.0" fill="#404040" transform="matrix(1.00, 0.00, -0.00, -1.00, 540.4, 488.8)">.</text><text xml:space="preserve" font-family="Palatino-Roman,Palatino" font-size="30.0" fill="#404040" transform="matrix(1.00, 0.00, -0.00, -1.00, 547.9, 488.8)"> </text><text xml:space="preserve" font-family="Palatino-Roman,Palatino" font-size="30.0" fill="#404040" transform="matrix(1.00, 0.00, -0.00, -1.00, 555.4, 488.8)">G</text><text xml:space="preserve" font-family="Palatino-Roman,Palatino" font-size="30.0" fill="#404040" transform="matrix(1.00, 0.00, -0.00, -1.00, 578.3, 488.8)">e</text><text xml:space="preserve" font-family="Palatino-Roman,Palatino" font-size="30.0" fill="#404040" transform="matrix(1.00, 0.00, -0.00, -1.00, 592.6, 488.8)">t</text><text xml:space="preserve" font-family="Palatino-Roman,Palatino" font-size="30.0" fill="#404040" transform="matrix(1.00, 0.00, -0.00, -1.00, 602.4, 488.8)"> </text><text xml:space="preserve" font-family="Palatino-Roman,Palatino" font-size="30.0" fill="#404040" transform="matrix(1.00, 0.00, -0.00, -1.00, 609.9, 488.8)">f</text><text xml:space="preserve" font-family="Palatino-Roman,Palatino" font-size="30.0" fill="#404040" transform="matrix(1.00, 0.00, -0.00, -1.00, 619.9, 488.8)">a</text><text xml:space="preserve" font-family="Palatino-Roman,Palatino" font-size="30.0" fill="#404040" transform="matrix(1.00, 0.00, -0.00, -1.00, 634.9, 488.8)">s</text><text xml:space="preserve" font-family="Palatino-Roman,Palatino" font-size="30.0" fill="#404040" transform="matrix(1.00, 0.00, -0.00, -1.00, 647.6, 488.8)">t</text><text xml:space="preserve" font-family="Palatino-Roman,Palatino" font-size="30.0" fill="#404040" transform="matrix(1.00, 0.00, -0.00, -1.00, 657.4, 488.8)">e</text><text xml:space="preserve" font-family="Palatino-Roman,Palatino" font-size="30.0" fill="#404040" transform="matrix(1.00, 0.00, -0.00, -1.00, 671.8, 488.8)">r</text><text xml:space="preserve" font-family="Palatino-Roman,Palatino" font-size="30.0" fill="#404040" transform="matrix(1.00, 0.00, -0.00, -1.00, 683.6, 488.8)"> </text><text xml:space="preserve" font-family="Palatino-Roman,Palatino" font-size="30.0" fill="#404040" transform="matrix(1.00, 0.00, -0.00, -1.00, 691.1, 488.8)">d</text><text xml:space="preserve" font-family="Palatino-Roman,Palatino" font-size="30.0" fill="#404040" transform="matrix(1.00, 0.00, -0.00, -1.00, 709.5, 488.8)">e</text><text xml:space="preserve" font-family="Palatino-Roman,Palatino" font-size="30.0" fill="#404040" transform="matrix(1.00, 0.00, -0.00, -1.00, 723.8, 488.8)">l</text><text xml:space="preserve" font-family="Palatino-Roman,Palatino" font-size="30.0" fill="#404040" transform="matrix(1.00, 0.00, -0.00, -1.00, 732.6, 488.8)">i</text><text xml:space="preserve" font-family="Palatino-Roman,Palatino" font-size="30.0" fill="#404040" transform="matrix(1.00, 0.00, -0.00, -1.00, 741.3, 488.8)">v</text><text xml:space="preserve" font-family="Palatino-Roman,Palatino" font-size="30.0" fill="#404040" transform="matrix(1.00, 0.00, -0.00, -1.00, 758.2, 488.8)">e</text><text xml:space="preserve" font-family="Palatino-Roman,Palatino" font-size="30.0" fill="#404040" transform="matrix(1.00, 0.00, -0.00, -1.00, 772.6, 488.8)">r</text><text xml:space="preserve" font-family="Palatino-Roman,Palatino" font-size="30.0" fill="#404040" transform="matrix(1.00, 0.00, -0.00, -1.00, 784.4, 488.8)">y</text><text xml:space="preserve" font-family="Palatino-Roman,Palatino" font-size="30.0" fill="#404040" transform="matrix(1.00, 0.00, -0.00, -1.00, 801.1, 488.8)"> </text><text xml:space="preserve" font-family="Palatino-Roman,Palatino" font-size="30.0" fill="#404040" transform="matrix(1.00, 0.00, -0.00, -1.00, 808.6, 488.8)">f</text><text xml:space="preserve" font-family="Palatino-Roman,Palatino" font-size="30.0" fill="#404040" transform="matrix(1.00, 0.00, -0.00, -1.00, 818.6, 488.8)">r</text><text xml:space="preserve" font-family="Palatino-Roman,Palatino" font-size="30.0" fill="#404040" transform="matrix(1.00, 0.00, -0.00, -1.00, 830.0, 488.8)">o</text><text xml:space="preserve" font-family="Palatino-Roman,Palatino" font-size="30.0" fill="#404040" transform="matrix(1.00, 0.00, -0.00, -1.00, 846.3, 488.8)">m</text><text xml:space="preserve" font-family="Palatino-Roman,Palatino" font-size="30.0" fill="#404040" transform="matrix(1.00, 0.00, -0.00, -1.00, 872.8, 488.8)"> </text><text xml:space="preserve" font-family="Palatino-Roman,Palatino" font-size="30.0" fill="#404040" transform="matrix(1.00, 0.00, -0.00, -1.00, 880.3, 488.8)">L</text><text xml:space="preserve" font-family="Palatino-Roman,Palatino" font-size="30.0" fill="#404040" transform="matrix(1.00, 0.00, -0.00, -1.00, 898.6, 488.8)">i</text><text xml:space="preserve" font-family="Palatino-Roman,Palatino" font-size="30.0" fill="#404040" transform="matrix(1.00, 0.00, -0.00, -1.00, 907.4, 488.8)">e</text><text xml:space="preserve" font-family="Palatino-Roman,Palatino" font-size="30.0" fill="#404040" transform="matrix(1.00, 0.00, -0.00, -1.00, 921.7, 488.8)">f</text><text xml:space="preserve" font-family="Palatino-Roman,Palatino" font-size="30.0" fill="#404040" transform="matrix(1.00, 0.00, -0.00, -1.00, 931.7, 488.8)">e</text><text xml:space="preserve" font-family="Palatino-Roman,Palatino" font-size="30.0" fill="#404040" transform="matrix(1.00, 0.00, -0.00, -1.00, 946.1, 488.8)">r</text><text xml:space="preserve" font-family="Palatino-Roman,Palatino" font-size="30.0" fill="#404040" transform="matrix(1.00, 0.00, -0.00, -1.00, 957.9, 488.8)">n</text><text xml:space="preserve" font-family="Palatino-Roman,Palatino" font-size="30.0" fill="#404040" transform="matrix(1.00, 0.00, -0.00, -1.00, 975.4, 488.8)"> </text><text xml:space="preserve" font-family="Palatino-Roman,Palatino" font-size="30.0" fill="#404040" transform="matrix(1.00, 0.00, -0.00, -1.00, 106.0, 448.8)">t</text><text xml:space="preserve" font-family="Palatino-Roman,Palatino" font-size="30.0" fill="#404040" transform="matrix(1.00, 0.00, -0.00, -1.00, 115.8, 448.8)">r</text><text xml:space="preserve" font-family="Palatino-Roman,Palatino" font-size="30.0" fill="#404040" transform="matrix(1.00, 0.00, -0.00, -1.00, 127.6, 448.8)">a</text><text xml:space="preserve" font-family="Palatino-Roman,Palatino" font-size="30.0" fill="#404040" transform="matrix(1.00, 0.00, -0.00, -1.00, 142.6, 448.8)">v</text><text xml:space="preserve" font-family="Palatino-Roman,Palatino" font-size="30.0" fill="#404040" transform="matrix(1.00, 0.00, -0.00, -1.00, 159.6, 448.8)">e</text><text xml:space="preserve" font-family="Palatino-Roman,Palatino" font-size="30.0" fill="#404040" transform="matrix(1.00, 0.00, -0.00, -1.00, 174.0, 448.8)">l</text><text xml:space="preserve" font-family="Palatino-Roman,Palatino" font-size="30.0" fill="#404040" transform="matrix(1.00, 0.00, -0.00, -1.00, 182.7, 448.8)">e</text><text xml:space="preserve" font-family="Palatino-Roman,Palatino" font-size="30.0" fill="#404040" transform="matrix(1.00, 0.00, -0.00, -1.00, 197.1, 448.8)">r</text><text xml:space="preserve" font-family="Palatino-Roman,Palatino" font-size="30.0" fill="#404040" transform="matrix(1.00, 0.00, -0.00, -1.00, 208.9, 448.8)"> </text><text xml:space="preserve" font-family="Palatino-Roman,Palatino" font-size="30.0" fill="#404040" transform="matrix(1.00, 0.00, -0.00, -1.00, 216.4, 448.8)">o</text><text xml:space="preserve" font-family="Palatino-Roman,Palatino" font-size="30.0" fill="#404040" transform="matrix(1.00, 0.00, -0.00, -1.00, 232.8, 448.8)">n</text><text xml:space="preserve" font-family="Palatino-Roman,Palatino" font-size="30.0" fill="#404040" transform="matrix(1.00, 0.00, -0.00, -1.00, 250.2, 448.8)"> </text><text xml:space="preserve" font-family="Palatino-Roman,Palatino" font-size="30.0" fill="#404040" transform="matrix(1.00, 0.00, -0.00, -1.00, 257.7, 448.8)">t</text><text xml:space="preserve" font-family="Palatino-Roman,Palatino" font-size="30.0" fill="#404040" transform="matrix(1.00, 0.00, -0.00, -1.00, 267.5, 448.8)">h</text><text xml:space="preserve" font-family="Palatino-Roman,Palatino" font-size="30.0" fill="#404040" transform="matrix(1.00, 0.00, -0.00, -1.00, 285.0, 448.8)">e</text><text xml:space="preserve" font-family="Palatino-Roman,Palatino" font-size="30.0" fill="#404040" transform="matrix(1.00, 0.00, -0.00, -1.00, 299.4, 448.8)">i</text><text xml:space="preserve" font-family="Palatino-Roman,Palatino" font-size="30.0" fill="#404040" transform="matrix(1.00, 0.00, -0.00, -1.00, 308.1, 448.8)">r</text><text xml:space="preserve" font-family="Palatino-Roman,Palatino" font-size="30.0" fill="#404040" transform="matrix(1.00, 0.00, -0.00, -1.00, 319.9, 448.8)"> </text><text xml:space="preserve" font-family="Palatino-Roman,Palatino" font-size="30.0" fill="#404040" transform="matrix(1.00, 0.00, -0.00, -1.00, 327.4, 448.8)">w</text><text xml:space="preserve" font-family="Palatino-Roman,Palatino" font-size="30.0" fill="#404040" transform="matrix(1.00, 0.00, -0.00, -1.00, 352.5, 448.8)">a</text><text xml:space="preserve" font-family="Palatino-Roman,Palatino" font-size="30.0" fill="#404040" transform="matrix(1.00, 0.00, -0.00, -1.00, 367.5, 448.8)">y</text><text xml:space="preserve" font-family="Palatino-Roman,Palatino" font-size="30.0" fill="#404040" transform="matrix(1.00, 0.00, -0.00, -1.00, 380.8, 448.8)">.</text><text xml:space="preserve" font-family="ZapfDingbatsITC,Zapf Dingbats" font-size="21.6" fill="#919191" transform="matrix(1.00, 0.00, -0.00, -1.00, 29.6, 293.3)">❖</text><text xml:space="preserve" font-family="Palatino-Bold,Palatino" font-weight="bold" font-size="36.0" fill="#404040" transform="matrix(1.00, 0.00, -0.00, -1.00, 66.6, 287.5)">S</text><text xml:space="preserve" font-family="Palatino-Bold,Palatino" font-weight="bold" font-size="36.0" fill="#404040" transform="matrix(1.00, 0.00, -0.00, -1.00, 88.5, 287.5)">a</text><text xml:space="preserve" font-family="Palatino-Bold,Palatino" font-weight="bold" font-size="36.0" fill="#404040" transform="matrix(1.00, 0.00, -0.00, -1.00, 106.5, 287.5)">v</text><text xml:space="preserve" font-family="Palatino-Bold,Palatino" font-weight="bold" font-size="36.0" fill="#404040" transform="matrix(1.00, 0.00, -0.00, -1.00, 126.6, 287.5)">i</text><text xml:space="preserve" font-family="Palatino-Bold,Palatino" font-weight="bold" font-size="36.0" fill="#404040" transform="matrix(1.00, 0.00, -0.00, -1.00, 138.6, 287.5)">n</text><text xml:space="preserve" font-family="Palatino-Bold,Palatino" font-weight="bold" font-size="36.0" fill="#404040" transform="matrix(1.00, 0.00, -0.00, -1.00, 160.5, 287.5)">g</text><text xml:space="preserve" font-family="Palatino-Bold,Palatino" font-weight="bold" font-size="36.0" fill="#404040" transform="matrix(1.00, 0.00, -0.00, -1.00, 180.6, 287.5)"> </text><text xml:space="preserve" font-family="Palatino-Bold,Palatino" font-weight="bold" font-size="36.0" fill="#404040" transform="matrix(1.00, 0.00, -0.00, -1.00, 189.6, 287.5)">E</text><text xml:space="preserve" font-family="Palatino-Bold,Palatino" font-weight="bold" font-size="36.0" fill="#404040" transform="matrix(1.00, 0.00, -0.00, -1.00, 211.6, 287.5)">n</text><text xml:space="preserve" font-family="Palatino-Bold,Palatino" font-weight="bold" font-size="36.0" fill="#404040" transform="matrix(1.00, 0.00, -0.00, -1.00, 233.5, 287.5)">v</text><text xml:space="preserve" font-family="Palatino-Bold,Palatino" font-weight="bold" font-size="36.0" fill="#404040" transform="matrix(1.00, 0.00, -0.00, -1.00, 253.6, 287.5)">i</text><text xml:space="preserve" font-family="Palatino-Bold,Palatino" font-weight="bold" font-size="36.0" fill="#404040" transform="matrix(1.00, 0.00, -0.00, -1.00, 265.6, 287.5)">r</text><text xml:space="preserve" font-family="Palatino-Bold,Palatino" font-weight="bold" font-size="36.0" fill="#404040" transform="matrix(1.00, 0.00, -0.00, -1.00, 279.6, 287.5)">o</text><text xml:space="preserve" font-family="Palatino-Bold,Palatino" font-weight="bold" font-size="36.0" fill="#404040" transform="matrix(1.00, 0.00, -0.00, -1.00, 299.6, 287.5)">n</text><text xml:space="preserve" font-family="Palatino-Bold,Palatino" font-weight="bold" font-size="36.0" fill="#404040" transform="matrix(1.00, 0.00, -0.00, -1.00, 321.6, 287.5)">m</text><text xml:space="preserve" font-family="Palatino-Bold,Palatino" font-weight="bold" font-size="36.0" fill="#404040" transform="matrix(1.00, 0.00, -0.00, -1.00, 353.6, 287.5)">e</text><text xml:space="preserve" font-family="Palatino-Bold,Palatino" font-weight="bold" font-size="36.0" fill="#404040" transform="matrix(1.00, 0.00, -0.00, -1.00, 371.6, 287.5)">n</text><text xml:space="preserve" font-family="Palatino-Bold,Palatino" font-weight="bold" font-size="36.0" fill="#404040" transform="matrix(1.00, 0.00, -0.00, -1.00, 393.6, 287.5)">t</text><text xml:space="preserve" font-family="Palatino-Roman,Palatino" font-size="22.5" fill="#404040" transform="matrix(1.00, 0.00, -0.00, -1.00, 66.6, 224.7)">•</text><text xml:space="preserve" font-family="Palatino-Roman,Palatino" font-size="30.0" fill="#404040" transform="matrix(1.00, 0.00, -0.00, -1.00, 103.6, 221.8)">L</text><text xml:space="preserve" font-family="Palatino-Roman,Palatino" font-size="30.0" fill="#404040" transform="matrix(1.00, 0.00, -0.00, -1.00, 121.9, 221.8)">i</text><text xml:space="preserve" font-family="Palatino-Roman,Palatino" font-size="30.0" fill="#404040" transform="matrix(1.00, 0.00, -0.00, -1.00, 130.6, 221.8)">e</text><text xml:space="preserve" font-family="Palatino-Roman,Palatino" font-size="30.0" fill="#404040" transform="matrix(1.00, 0.00, -0.00, -1.00, 145.0, 221.8)">f</text><text xml:space="preserve" font-family="Palatino-Roman,Palatino" font-size="30.0" fill="#404040" transform="matrix(1.00, 0.00, -0.00, -1.00, 155.0, 221.8)">e</text><text xml:space="preserve" font-family="Palatino-Roman,Palatino" font-size="30.0" fill="#404040" transform="matrix(1.00, 0.00, -0.00, -1.00, 169.3, 221.8)">r</text><text xml:space="preserve" font-family="Palatino-Roman,Palatino" font-size="30.0" fill="#404040" transform="matrix(1.00, 0.00, -0.00, -1.00, 181.2, 221.8)">n</text><text xml:space="preserve" font-family="Palatino-Roman,Palatino" font-size="30.0" fill="#404040" transform="matrix(1.00, 0.00, -0.00, -1.00, 198.7, 221.8)"> </text><text xml:space="preserve" font-family="Palatino-Roman,Palatino" font-size="30.0" fill="#404040" transform="matrix(1.00, 0.00, -0.00, -1.00, 206.2, 221.8)">d</text><text xml:space="preserve" font-family="Palatino-Roman,Palatino" font-size="30.0" fill="#404040" transform="matrix(1.00, 0.00, -0.00, -1.00, 224.5, 221.8)">o</text><text xml:space="preserve" font-family="Palatino-Roman,Palatino" font-size="30.0" fill="#404040" transform="matrix(1.00, 0.00, -0.00, -1.00, 240.8, 221.8)">e</text><text xml:space="preserve" font-family="Palatino-Roman,Palatino" font-size="30.0" fill="#404040" transform="matrix(1.00, 0.00, -0.00, -1.00, 255.2, 221.8)">s</text><text xml:space="preserve" font-family="Palatino-Roman,Palatino" font-size="30.0" fill="#404040" transform="matrix(1.00, 0.00, -0.00, -1.00, 267.9, 221.8)">n</text><text xml:space="preserve" font-family="Palatino-Roman,Palatino" font-size="30.0" fill="#404040" transform="matrix(1.00, 0.00, -0.00, -1.00, 285.4, 221.8)">'</text><text xml:space="preserve" font-family="Palatino-Roman,Palatino" font-size="30.0" fill="#404040" transform="matrix(1.00, 0.00, -0.00, -1.00, 291.6, 221.8)">t</text><text xml:space="preserve" font-family="Palatino-Roman,Palatino" font-size="30.0" fill="#404040" transform="matrix(1.00, 0.00, -0.00, -1.00, 301.4, 221.8)"> </text><text xml:space="preserve" font-family="Palatino-Roman,Palatino" font-size="30.0" fill="#404040" transform="matrix(1.00, 0.00, -0.00, -1.00, 308.9, 221.8)">a</text><text xml:space="preserve" font-family="Palatino-Roman,Palatino" font-size="30.0" fill="#404040" transform="matrix(1.00, 0.00, -0.00, -1.00, 323.9, 221.8)">d</text><text xml:space="preserve" font-family="Palatino-Roman,Palatino" font-size="30.0" fill="#404040" transform="matrix(1.00, 0.00, -0.00, -1.00, 342.2, 221.8)">d</text><text xml:space="preserve" font-family="Palatino-Roman,Palatino" font-size="30.0" fill="#404040" transform="matrix(1.00, 0.00, -0.00, -1.00, 360.6, 221.8)"> </text><text xml:space="preserve" font-family="Palatino-Roman,Palatino" font-size="30.0" fill="#404040" transform="matrix(1.00, 0.00, -0.00, -1.00, 368.1, 221.8)">a</text><text xml:space="preserve" font-family="Palatino-Roman,Palatino" font-size="30.0" fill="#404040" transform="matrix(1.00, 0.00, -0.00, -1.00, 383.1, 221.8)">n</text><text xml:space="preserve" font-family="Palatino-Roman,Palatino" font-size="30.0" fill="#404040" transform="matrix(1.00, 0.00, -0.00, -1.00, 400.5, 221.8)">y</text><text xml:space="preserve" font-family="Palatino-Roman,Palatino" font-size="30.0" fill="#404040" transform="matrix(1.00, 0.00, -0.00, -1.00, 417.2, 221.8)"> </text><text xml:space="preserve" font-family="Palatino-Roman,Palatino" font-size="30.0" fill="#404040" transform="matrix(1.00, 0.00, -0.00, -1.00, 103.6, 181.8)">n</text><text xml:space="preserve" font-family="Palatino-Roman,Palatino" font-size="30.0" fill="#404040" transform="matrix(1.00, 0.00, -0.00, -1.00, 121.0, 181.8)">e</text><text xml:space="preserve" font-family="Palatino-Roman,Palatino" font-size="30.0" fill="#404040" transform="matrix(1.00, 0.00, -0.00, -1.00, 135.4, 181.8)">w</text><text xml:space="preserve" font-family="Palatino-Roman,Palatino" font-size="30.0" fill="#404040" transform="matrix(1.00, 0.00, -0.00, -1.00, 160.4, 181.8)"> </text><text xml:space="preserve" font-family="Palatino-Roman,Palatino" font-size="30.0" fill="#404040" transform="matrix(1.00, 0.00, -0.00, -1.00, 167.9, 181.8)">v</text><text xml:space="preserve" font-family="Palatino-Roman,Palatino" font-size="30.0" fill="#404040" transform="matrix(1.00, 0.00, -0.00, -1.00, 184.9, 181.8)">e</text><text xml:space="preserve" font-family="Palatino-Roman,Palatino" font-size="30.0" fill="#404040" transform="matrix(1.00, 0.00, -0.00, -1.00, 199.2, 181.8)">h</text><text xml:space="preserve" font-family="Palatino-Roman,Palatino" font-size="30.0" fill="#404040" transform="matrix(1.00, 0.00, -0.00, -1.00, 216.7, 181.8)">i</text><text xml:space="preserve" font-family="Palatino-Roman,Palatino" font-size="30.0" fill="#404040" transform="matrix(1.00, 0.00, -0.00, -1.00, 225.4, 181.8)">c</text><text xml:space="preserve" font-family="Palatino-Roman,Palatino" font-size="30.0" fill="#404040" transform="matrix(1.00, 0.00, -0.00, -1.00, 238.7, 181.8)">l</text><text xml:space="preserve" font-family="Palatino-Roman,Palatino" font-size="30.0" fill="#404040" transform="matrix(1.00, 0.00, -0.00, -1.00, 247.5, 181.8)">e</text><text xml:space="preserve" font-family="Palatino-Roman,Palatino" font-size="30.0" fill="#404040" transform="matrix(1.00, 0.00, -0.00, -1.00, 261.8, 181.8)">s</text><text xml:space="preserve" font-family="Palatino-Roman,Palatino" font-size="30.0" fill="#404040" transform="matrix(1.00, 0.00, -0.00, -1.00, 274.5, 181.8)"> </text><text xml:space="preserve" font-family="Palatino-Roman,Palatino" font-size="30.0" fill="#404040" transform="matrix(1.00, 0.00, -0.00, -1.00, 282.0, 181.8)">o</text><text xml:space="preserve" font-family="Palatino-Roman,Palatino" font-size="30.0" fill="#404040" transform="matrix(1.00, 0.00, -0.00, -1.00, 298.4, 181.8)">n</text><text xml:space="preserve" font-family="Palatino-Roman,Palatino" font-size="30.0" fill="#404040" transform="matrix(1.00, 0.00, -0.00, -1.00, 315.9, 181.8)"> </text><text xml:space="preserve" font-family="Palatino-Roman,Palatino" font-size="30.0" fill="#404040" transform="matrix(1.00, 0.00, -0.00, -1.00, 323.4, 181.8)">t</text><text xml:space="preserve" font-family="Palatino-Roman,Palatino" font-size="30.0" fill="#404040" transform="matrix(1.00, 0.00, -0.00, -1.00, 333.2, 181.8)">h</text><text xml:space="preserve" font-family="Palatino-Roman,Palatino" font-size="30.0" fill="#404040" transform="matrix(1.00, 0.00, -0.00, -1.00, 350.6, 181.8)">e</text><text xml:space="preserve" font-family="Palatino-Roman,Palatino" font-size="30.0" fill="#404040" transform="matrix(1.00, 0.00, -0.00, -1.00, 365.0, 181.8)"> </text><text xml:space="preserve" font-family="Palatino-Roman,Palatino" font-size="30.0" fill="#404040" transform="matrix(1.00, 0.00, -0.00, -1.00, 103.6, 141.8)">r</text><text xml:space="preserve" font-family="Palatino-Roman,Palatino" font-size="30.0" fill="#404040" transform="matrix(1.00, 0.00, -0.00, -1.00, 114.9, 141.8)">o</text><text xml:space="preserve" font-family="Palatino-Roman,Palatino" font-size="30.0" fill="#404040" transform="matrix(1.00, 0.00, -0.00, -1.00, 131.3, 141.8)">a</text><text xml:space="preserve" font-family="Palatino-Roman,Palatino" font-size="30.0" fill="#404040" transform="matrix(1.00, 0.00, -0.00, -1.00, 146.3, 141.8)">d</text><text xml:space="preserve" font-family="Palatino-Roman,Palatino" font-size="30.0" fill="#404040" transform="matrix(1.00, 0.00, -0.00, -1.00, 164.6, 141.8)">.</text><text xml:space="preserve" font-family="Palatino-Roman,Palatino" font-size="30.0" fill="#404040" transform="matrix(1.00, 0.00, -0.00, -1.00, 172.1, 141.8)"> </text><text xml:space="preserve" font-family="Palatino-Roman,Palatino" font-size="30.0" fill="#404040" transform="matrix(1.00, 0.00, -0.00, -1.00, 179.6, 141.8)">B</text><text xml:space="preserve" font-family="Palatino-Roman,Palatino" font-size="30.0" fill="#404040" transform="matrix(1.00, 0.00, -0.00, -1.00, 197.9, 141.8)">u</text><text xml:space="preserve" font-family="Palatino-Roman,Palatino" font-size="30.0" fill="#404040" transform="matrix(1.00, 0.00, -0.00, -1.00, 216.0, 141.8)">t</text><text xml:space="preserve" font-family="Palatino-Roman,Palatino" font-size="30.0" fill="#404040" transform="matrix(1.00, 0.00, -0.00, -1.00, 225.8, 141.8)"> </text><text xml:space="preserve" font-family="Palatino-Roman,Palatino" font-size="30.0" fill="#404040" transform="matrix(1.00, 0.00, -0.00, -1.00, 233.3, 141.8)">m</text><text xml:space="preserve" font-family="Palatino-Roman,Palatino" font-size="30.0" fill="#404040" transform="matrix(1.00, 0.00, -0.00, -1.00, 259.8, 141.8)">a</text><text xml:space="preserve" font-family="Palatino-Roman,Palatino" font-size="30.0" fill="#404040" transform="matrix(1.00, 0.00, -0.00, -1.00, 274.8, 141.8)">k</text><text xml:space="preserve" font-family="Palatino-Roman,Palatino" font-size="30.0" fill="#404040" transform="matrix(1.00, 0.00, -0.00, -1.00, 291.4, 141.8)">e</text><text xml:space="preserve" font-family="Palatino-Roman,Palatino" font-size="30.0" fill="#404040" transform="matrix(1.00, 0.00, -0.00, -1.00, 305.8, 141.8)"> </text><text xml:space="preserve" font-family="Palatino-Roman,Palatino" font-size="30.0" fill="#404040" transform="matrix(1.00, 0.00, -0.00, -1.00, 313.3, 141.8)">u</text><text xml:space="preserve" font-family="Palatino-Roman,Palatino" font-size="30.0" fill="#404040" transform="matrix(1.00, 0.00, -0.00, -1.00, 331.4, 141.8)">s</text><text xml:space="preserve" font-family="Palatino-Roman,Palatino" font-size="30.0" fill="#404040" transform="matrix(1.00, 0.00, -0.00, -1.00, 344.1, 141.8)">e</text><text xml:space="preserve" font-family="Palatino-Roman,Palatino" font-size="30.0" fill="#404040" transform="matrix(1.00, 0.00, -0.00, -1.00, 358.5, 141.8)"> </text><text xml:space="preserve" font-family="Palatino-Roman,Palatino" font-size="30.0" fill="#404040" transform="matrix(1.00, 0.00, -0.00, -1.00, 366.0, 141.8)">o</text><text xml:space="preserve" font-family="Palatino-Roman,Palatino" font-size="30.0" fill="#404040" transform="matrix(1.00, 0.00, -0.00, -1.00, 382.4, 141.8)">f</text><text xml:space="preserve" font-family="Palatino-Roman,Palatino" font-size="30.0" fill="#404040" transform="matrix(1.00, 0.00, -0.00, -1.00, 392.4, 141.8)"> </text><text xml:space="preserve" font-family="Palatino-Roman,Palatino" font-size="30.0" fill="#404040" transform="matrix(1.00, 0.00, -0.00, -1.00, 103.6, 101.8)">e</text><text xml:space="preserve" font-family="Palatino-Roman,Palatino" font-size="30.0" fill="#404040" transform="matrix(1.00, 0.00, -0.00, -1.00, 117.9, 101.8)">x</text><text xml:space="preserve" font-family="Palatino-Roman,Palatino" font-size="30.0" fill="#404040" transform="matrix(1.00, 0.00, -0.00, -1.00, 133.4, 101.8)">i</text><text xml:space="preserve" font-family="Palatino-Roman,Palatino" font-size="30.0" fill="#404040" transform="matrix(1.00, 0.00, -0.00, -1.00, 142.1, 101.8)">s</text><text xml:space="preserve" font-family="Palatino-Roman,Palatino" font-size="30.0" fill="#404040" transform="matrix(1.00, 0.00, -0.00, -1.00, 154.9, 101.8)">t</text><text xml:space="preserve" font-family="Palatino-Roman,Palatino" font-size="30.0" fill="#404040" transform="matrix(1.00, 0.00, -0.00, -1.00, 164.6, 101.8)">i</text><text xml:space="preserve" font-family="Palatino-Roman,Palatino" font-size="30.0" fill="#404040" transform="matrix(1.00, 0.00, -0.00, -1.00, 173.4, 101.8)">n</text><text xml:space="preserve" font-family="Palatino-Roman,Palatino" font-size="30.0" fill="#404040" transform="matrix(1.00, 0.00, -0.00, -1.00, 190.8, 101.8)">g</text><text xml:space="preserve" font-family="Palatino-Roman,Palatino" font-size="30.0" fill="#404040" transform="matrix(1.00, 0.00, -0.00, -1.00, 207.5, 101.8)"> </text><text xml:space="preserve" font-family="Palatino-Roman,Palatino" font-size="30.0" fill="#404040" transform="matrix(1.00, 0.00, -0.00, -1.00, 215.0, 101.8)">o</text><text xml:space="preserve" font-family="Palatino-Roman,Palatino" font-size="30.0" fill="#404040" transform="matrix(1.00, 0.00, -0.00, -1.00, 231.4, 101.8)">n</text><text xml:space="preserve" font-family="Palatino-Roman,Palatino" font-size="30.0" fill="#404040" transform="matrix(1.00, 0.00, -0.00, -1.00, 248.9, 101.8)">e</text><text xml:space="preserve" font-family="Palatino-Roman,Palatino" font-size="30.0" fill="#404040" transform="matrix(1.00, 0.00, -0.00, -1.00, 263.2, 101.8)">.</text><text xml:space="preserve" font-family="Palatino-Roman,Palatino" font-size="30.0" fill="#404040" transform="matrix(1.00, 0.00, -0.00, -1.00, 270.7, 101.8)"> </text><image xlink:href="../../4C58A714-8F09-48B5-838A-B626A24CD15F/assets/E8E98417A6A3F77FC8563DA1CF00206F.jpeg" width="800.00" height="600.00" transform="matrix(-0.63, 0.00, 0.00, -0.63, 981.3, 442.0)"></image><image xlink:href="../../4C58A714-8F09-48B5-838A-B626A24CD15F/assets/48B804B7A886384BEC3CD775D55DBDAC.png" width="524.00" height="404.00" transform="matrix(-1.00, 0.00, 0.00, 1.00, 991.3, 45.1)"></image></g></svg>